<svg xmlns="http://www.w3.org/2000/svg" viewBox="0 0 57 176"><path fill="#040606" stroke="#000" stroke-linecap="round" stroke-linejoin="round" stroke-width=".213" d="M-2.442 119.083c-.091 2.72.28 5.438 1.1 8.034.04.128.242.073.201-.056a23.837 23.837 0 0 1-1.091-7.978c.004-.134-.205-.134-.21 0M-1.389 121.34a13.993 13.993 0 0 0 .35 3.537c.03.13.232.075.202-.056a13.75 13.75 0 0 1-.343-3.48c.004-.135-.205-.135-.209 0" transform="matrix(.99464 0 0 .99568 41.972 -38.44)"/><path fill="#bc4b4e" stroke="#000" stroke-linecap="round" stroke-linejoin="round" stroke-width=".213" d="M-29.576 165.313c4.287-12.235 9.005-19.28 12.45-24.425 3.49-5.203 5.79-8.634 5.79-13.926 0-.294-.008-.595-.022-.902-.459-7.06-4.057-10.478-7.865-14.096-3.819-3.621-7.756-7.356-8.267-15.025-.004-.034-.085-.641-.085-1.686 0-1.445.155-3.75.893-6.518.747-2.802 1.936-5.527 3.536-8.102 1.994-3.216 4.638-6.203 7.857-8.878.73-.636 7.09-6.204 11.247-10.995C.32 55.73 4.518 49.73 5.723 46.8c.264-.647.512-1.334.776-2.062.922-2.554 1.864-5.163 3.485-5.878.4-.18.716-.183.938-.01.252.195.375.607.375 1.258 0 .7-.143 1.58-.281 2.43a18.643 18.643 0 0 0-.197 1.378c.003.069.011.212.011.44 0 .784-.093 2.446-.715 4.755l-.01.034.013.034c.036.104.06.222.067.351.003.048.004.097.004.146 0 .826-.401 1.699-.755 2.469-.067.145-.133.289-.194.428l-.042.095c-.13.303-.372.865-.673.819l-.09-.014-.035.084c-.387.939-.8 1.84-1.264 2.756l-.053.104.104.052.05.046c.006.01.03.07.05.124v.018l.01.014.013.037c.011.054.013.094.013.133 0 .38-.198.766-.402 1.13-.263.463-.588.902-.902 1.327l-.212.29c-.188.262-.384.532-.61.758-.097.097-.243.209-.387.191l-.072-.009-.04.062a51.873 51.873 0 0 1-2.538 3.602l-.03.039.007.048.003.06v.02c-.014.278-.151.553-.298.809-.427.76-1.048 1.415-1.65 2.048l-.177.19c-.263.286-.963 1.045-1.355 1.036l-.05-.002-.036.037c-.59.648-1.115 1.224-1.607 1.757l-.25.275c-.77.84-1.464 1.6-2.166 2.382l-.046.05.022.066.006.072c0 .222-.104.476-.2.697-.342.803-.915 1.478-1.573 2.215l-.066.077c-1.06 1.233-1.564 1.483-1.8 1.476a.206.206 0 0 1-.169-.088l-.087-.115-.094.109c-.767.891-1.159 1.354-1.744 2.067l-.052.062.072.125c.046.093.058.2.065.303l.003.023-.003.051c0 .405-.145.773-.287 1.08-.438.938-1.149 1.728-1.837 2.493l-.256.285c-.337.377-.686.767-1.051 1.114l-.052.049c-.163.154-.347.328-.544.397a.331.331 0 0 1-.215.011l-.096-.032-.045.09a18.63 18.63 0 0 0-1.298 3.426l-.024.024.009.055c.067.487.08.995.093 1.486l.02.648c.01.297.02.597.02.897 0 .425-.02.772-.064 1.093-.046.326-.135.734-.423.992-.033.03-.07.059-.107.088l-.048.04.005.062c.073.78.224 1.944.693 3.06l.033.081.088-.01c.471-.055.967.139 1.394.545.295.281.56.655.812 1.14.223.428.51.993.75 1.576.155.376.39.943.39 1.454 0 .165-.024.317-.072.455a.9.9 0 0 1-.248.375l-.087.081.084.085.207.2c.58.545 1.217 1.106 1.891 1.7l.268.239.05.053.005-.004.116.105v-.201a.57.57 0 0 1 .1-.059c.375-.193.84-.157 1.388.108.372.178.748.44 1.187.829l.114.1c.407.353.826.718 1.201 1.111.445.465.92 1.01.927 1.602 0 .284-.119.534-.364.775l-.079.077.074.083c.952 1.059 1.426 1.737 2.192 2.95l.047.074.085-.026c.096-.03.189-.046.276-.049.534-.023.97.36 1.24.685.34.408.584.88.777 1.286l.045.095c.224.47.456.954.643 1.45.153.404.316.871.316 1.31 0 .19-.032.363-.094.515a.993.993 0 0 1-.512.516l-.09.043.03.094c.558 1.85.9 3.83 1.015 5.888l.004.07.065.029c.344.155.604.509.775 1.05.156.49.193 1.025.208 1.384l.005.126c.014.37.03.739.03 1.108 0 .173-.004.346-.012.52-.029.585-.068 1.389-.526 1.835-.178.176-.408.265-.703.273l-.1.003-.012.098a45.608 45.608 0 0 1-.914 4.924l-.014.06.041.045c.224.249.353.613.384 1.082.005.08.008.159.008.238 0 .417-.07.835-.122 1.113a21.187 21.187 0 0 1-.4 1.76c-.194.67-.426 1.349-.937 1.656a.99.99 0 0 1-.691.117l-.095-.016-.033.09a84.423 84.423 0 0 1-1.903 4.788l-.031.072.055.055c.35.312.422.78.422 1.122 0 .041-.001.083-.003.124-.049 1.005-.503 2.046-.903 2.964-.259.585-.597 1.35-1.194 1.626-.283.132-.6.114-.941-.053l-.104-.051-.051.104c-.46.943-.912 1.867-1.353 2.764l-.866 1.759.02.048c.091.221.138.494.138.81 0 .095-.005.188-.011.278-.033.485-.14 1.01-.336 1.652a29.54 29.54 0 0 1-.65 1.984l-.029.076c-.25.663-.561 1.487-1.161 1.862-.26.16-.558.176-.885.044l-.11-.044-.042.11a52.243 52.243 0 0 0-1.39 4.103l-.02.064.06.063.024.013c.328.251.507.736.523 1.434l.002.132c0 .532-.091 1.067-.17 1.474-.13.64-.285 1.384-.485 2.106l-.015.055c-.194.7-.435 1.572-1.017 2a.825.825 0 0 1-.445.168l-.094.006-.014.092a57.063 57.063 0 0 0-.476 4.49l-.004.059.045.038c.276.231.48.614.623 1.172.12.457.19.977.217 1.638l.006.143c.019.499.039 1.015.039 1.52 0 .156-.002.312-.006.467l-.003.08c-.022.7-.049 1.574-.502 2.098a.864.864 0 0 1-.38.256l-.082.028.005.088c.06 1.11.155 2.275.282 3.461l.011.104h.105c.581.193.91.86 1.156 1.488.285.74.45 1.524.562 2.124l.101.541c.121.642.247 1.305.335 1.962l.024.17c.058.412.123.879.123 1.33 0 .484-.075.87-.232 1.177a.825.825 0 0 1-.45.416l-.094.037.024.098c.282 1.165.61 2.383.976 3.62l.028.097.1-.015a.82.82 0 0 1 .274.007c.58.11.997.718 1.294 1.235.394.683.666 1.42.86 1.986l.017.047c.27.776.55 1.579.786 2.384l.058.204c.17.58.36 1.239.36 1.854 0 .24-.03.458-.09.65a.87.87 0 0 1-.403.522l-.088.05.04.095c.104.251.212.507.32.758a.47.47 0 0 1-.04.428.454.454 0 0 1-.378.207H-31.19" transform="matrix(.99464 0 0 .99568 41.972 -38.44)"/><path fill="#bc4b4e" d="M24.369 174.133a31.633 31.633 0 0 1-1.42-5.242c-.022-.13.178-.185.205-.054a31.301 31.301 0 0 0 1.414 5.242c.047.127-.157.181-.2.054m1.104-1.94c-.204-.55-.404-1.097-.608-1.643-.046-.127.154-.181.2-.058.204.55.404 1.097.608 1.643.046.128-.154.181-.2.058m1.45-.554c-.081-.104.065-.254.15-.146.219.28.38.596.476.943.035.13-.165.185-.2.054a2.358 2.358 0 0 0-.427-.85m2.011-4.439l-.004-.019a.1.1 0 0 1 .089-.1c.054-.012.108.027.12.085 0 .011.053.308.164.793.808 1.704 1.1 3.475 1.127 3.66.138.346.292.696.453 1.043a.106.106 0 0 1-.05.138c-.053.024-.114.004-.138-.05a16.79 16.79 0 0 1-.454-1.05 25.873 25.873 0 0 1-1.138-3.695c-.11-.493-.165-.793-.169-.805m-6.732-.342v-.45c0-.131.208-.131.208 0v.45c0 .134-.208.134-.208 0m2.691-1.51a1.794 1.794 0 0 1-.284-1.034c.004-.135.211-.135.207 0a1.6 1.6 0 0 0 .254.93c.073.113-.107.216-.177.105m.5-1.29l.289 1.051c.038.131-.166.185-.2.058-.096-.35-.193-.7-.292-1.051-.035-.13.165-.184.203-.058m.896-.223l.15.6c.035.128-.165.185-.2.055l-.15-.601c-.034-.127.166-.185.2-.054m-3.725-2.732a8.582 8.582 0 0 1-.235-2.125c0-.135.207-.135.207 0-.007.7.066 1.385.227 2.067.031.13-.169.184-.2.058m-1.269-.255c-.149-1.17-.23-2.343-.246-3.521 0-.131.208-.131.208 0 .016 1.178.096 2.351.246 3.521.02.131-.188.131-.208 0m4.56-5.746c-.042-.508-.053-.82-.053-.827v-.004c0-.058.042-.104.1-.104.057-.004.103.042.108.1 0 .008.01.315.053.82.558 1.813.588 3.61.593 3.775.084.362.184.732.295 1.094a.1.1 0 0 1-.065.13c-.057.016-.115-.015-.13-.069a19.737 19.737 0 0 1-.3-1.1l-.008-.043a26.432 26.432 0 0 1-.589-3.737l-.003-.035m-4.03-.38v-1.275c0-.135.212-.135.212 0v1.274c0 .135-.212.135-.212 0m-.838-2.89a11.472 11.472 0 0 1-.127-2.352c.004-.135.212-.135.208 0-.039.77 0 1.536.12 2.298.018.13-.182.185-.2.054m.668-2.98c.142.928.192 1.86.15 2.799-.008.135-.215.135-.208 0 .043-.92-.004-1.836-.142-2.745-.02-.13.18-.188.2-.053m1.342 1.924c-.023.127-.05.25-.073.377-.027.131-.227.073-.204-.058.027-.123.054-.25.077-.373.027-.131.227-.077.2.054m.607.423c0 .135-.207.135-.207 0 0-.134.207-.134.207 0m1.346-3.702a14.147 14.147 0 0 1-.18-2.348c0-.662.038-1.243.076-1.667l.004-.038v-.008c.038-.4.073-.647.077-.654a.101.101 0 0 1 .12-.085.102.102 0 0 1 .084.12c0 .007-.039.253-.077.665v.007c.254 1.497.015 2.91-.016 3.072v.004c.031.296.07.597.12.896a.105.105 0 0 1-.089.12c-.053.011-.107-.027-.119-.085m-4.621-1.016v-.974c0-.134.207-.134.207 0v.974c0 .135-.207.135-.207 0m.365-3.16c.026-1.628.12-3.252.277-4.872.011-.131.219-.135.207 0a60.564 60.564 0 0 0-.276 4.872c0 .13-.208.13-.208 0m3.53-5.284a1.456 1.456 0 0 1-.989-1.117c-.023-.13.177-.184.2-.053.085.454.4.827.842.965.13.043.073.243-.054.205m-.95.43c.1.097.2.197.3.297.097.096-.05.242-.145.15l-.3-.3c-.093-.097.054-.243.146-.146m-1.411 2.005v1.647c0 .135-.208.135-.208 0v-1.647c0-.135.208-.135.208 0m3.967-4.988v-.008c.189-2.348 1.127-4.554 1.135-4.576a.107.107 0 0 1 .138-.054c.05.023.077.084.054.138-.004.004-.1.231-.235.612-.119 1.509-.695 2.821-.772 2.987l-.004.015c-.046.293-.085.593-.108.897a.101.101 0 0 1-.111.092.105.105 0 0 1-.097-.104m-3.037-3.006l.15-.3c.058-.12.239-.015.177.108-.05.096-.1.197-.15.296-.058.123-.238.016-.177-.104m1.03-4.765a28.736 28.736 0 0 1 1.323-3.456c.054-.12.235-.015.18.108a28.251 28.251 0 0 0-1.302 3.406c-.043.127-.243.074-.2-.058m5.61-3.744l.003-.016c.05-.304.115-.604.188-.897l.008-.034a17.346 17.346 0 0 1 1.038-2.918v-.004c.173-.377.292-.6.296-.608a.106.106 0 0 1 .142-.042c.05.026.07.092.043.142a8.72 8.72 0 0 0-.292.604c-.25 1.474-.93 2.717-1.027 2.89l-.004.005c-.073.292-.134.593-.188.897a.11.11 0 0 1-.12.085.106.106 0 0 1-.088-.104m-3.964 2.49c-.096.223-.196.45-.292.677-.054.123-.235.016-.18-.108.095-.223.195-.45.291-.673.054-.123.235-.02.181.104m.896.196c-.1.296-.204.597-.308.893-.042.127-.246.073-.2-.054.104-.3.208-.596.308-.897.046-.123.246-.07.2.058m1.515-9.13c.184-.48.411-.938.676-1.377.07-.116.25-.012.177.104a8.862 8.862 0 0 0-.653 1.328c-.05.123-.25.068-.2-.054m3.48-1.91l.372.374c.097.096-.053.242-.146.146-.127-.123-.25-.246-.377-.373-.092-.097.054-.243.15-.147m-.192.932c.13.034.073.235-.053.2a1.789 1.789 0 0 0-.997.02c-.13.038-.184-.162-.057-.201a2.012 2.012 0 0 1 1.107-.02m-1.419-2.574a35.887 35.887 0 0 0 2.238-4.272c.058-.123.235-.016.181.104a35.883 35.883 0 0 1-2.238 4.272c-.07.115-.25.011-.18-.104m6.609-4.703c.046.03.061.096.03.142a7.508 7.508 0 0 0-.276.47c-.239 1.239-.889 2.213-.992 2.363-.07.239-.13.48-.177.731a.106.106 0 0 1-.123.085.108.108 0 0 1-.085-.104l.004-.02a9.32 9.32 0 0 1 .18-.758l.005-.011c.288-.994.715-1.863 1-2.375.164-.308.284-.489.288-.496.034-.047.096-.062.146-.027m-3.518-.905c.138-.28.28-.558.419-.839.057-.12.238-.015.177.104l-.416.843c-.057.119-.238.011-.18-.108m2.165-1.732c-.132-.035-.073-.235.053-.204.2.054.4.108.596.158.131.035.077.235-.054.204-.2-.054-.396-.108-.595-.158m-.085-1.028c.173-.046.35-.092.526-.142.127-.035.185.17.054.204-.176.046-.35.092-.526.142-.127.035-.185-.169-.054-.204m.07-2.494c.126-.25.249-.5.376-.75.058-.12.238-.012.177.108-.123.25-.246.496-.373.746-.058.12-.238.015-.18-.104m3.982-1.035v-.007a8.24 8.24 0 0 1 .07-.758l.003-.024c.223-1.643.854-3.017.861-3.033a.109.109 0 0 1 .139-.05c.054.027.077.089.05.139-.004.008-.089.192-.204.504a6.581 6.581 0 0 1-.642 2.482l-.004.004c-.03.243-.054.493-.065.747a.106.106 0 0 1-.108.1.105.105 0 0 1-.1-.104m-1.43-2.747c.073-.224.15-.45.223-.674.042-.127.246-.073.204.054l-.227.677c-.043.123-.242.07-.2-.058m.242-2.767c.05-.2.096-.4.142-.6.031-.131.231-.074.2.057l-.138.6c-.03.132-.235.074-.204-.057m.938-.908c.054-.247.112-.497.166-.743.03-.13.23-.077.2.054-.054.25-.112.496-.165.746-.031.131-.232.073-.2-.057m1.337-1.24c-.027.224-.054.45-.077.674-.015.13-.223.13-.207 0 .023-.223.05-.45.077-.674.015-.13.223-.134.207 0m1.446-3.437a7.443 7.443 0 0 1-.112-.75l-.003-.039a10.14 10.14 0 0 1-.054-1.058c0-.593.046-1.117.088-1.49l.004-.034.004-.008c.042-.335.08-.543.08-.547a.11.11 0 0 1 .124-.084c.058.011.092.07.08.123 0 .004-.042.208-.08.539.246 1.227.007 2.37-.035 2.56.023.246.058.5.108.75a.101.101 0 0 1-.085.12c-.054.01-.112-.024-.119-.081m-3.376-.124a4.64 4.64 0 0 0 .289-1.247c.007-.135.215-.135.207 0a4.753 4.753 0 0 1-.296 1.301c-.05.123-.25.07-.2-.054m-.012-5.146v-.296c0-.135.208-.135.208 0v.296c0 .135-.208.135-.208 0m1.589-1.382a9.034 9.034 0 0 0-.423-2.474c-.039-.131.161-.185.2-.058.261.824.403 1.67.43 2.533.004.134-.203.134-.207 0m-1.027-.474c-.069-.366-.139-.731-.211-1.097-.024-.131.176-.189.203-.058l.208 1.097c.027.131-.177.189-.2.058m-.884-4.376a5.52 5.52 0 0 0-.32-.589c-.069-.116.108-.22.181-.104.116.189.223.385.32.589.053.12-.124.227-.181.104m2.41-.797a6.984 6.984 0 0 1-.41-.666 12.122 12.122 0 0 1-.997-2.382c-.1-.34-.146-.55-.15-.559v-.022c0-.047.031-.093.081-.1a.103.103 0 0 1 .123.076c.004.008.046.208.139.528.73 1.054.96 2.22.991 2.375.123.211.254.427.396.63a.11.11 0 0 1-.026.147.109.109 0 0 1-.147-.027m-1.18-.142a5.416 5.416 0 0 1-.457-.978c-.043-.127.157-.18.2-.054.115.323.26.631.438.924.069.115-.112.22-.181.108M34.58 75.57a66.185 66.185 0 0 0-4.09-3.537c-.108-.08.042-.227.145-.146a66.176 66.176 0 0 1 4.091 3.537c.1.088-.046.238-.146.146m-1.53-2.886l.742.68c.1.09-.046.236-.146.147l-.742-.681c-.1-.089.046-.235.146-.146m.67-1.344c-.131-.065-.266-.135-.397-.204-.119-.058-.015-.239.104-.177.135.066.265.135.396.204.12.062.015.239-.104.177m-2.488-.2a1.254 1.254 0 0 1-.568-.446c-.077-.108.103-.212.18-.104.111.158.266.277.442.35.124.05.07.25-.054.2m1.573-1.655c-.077-.111.104-.215.181-.104.319.454.715.84 1.18 1.147.112.073.004.25-.107.177a4.725 4.725 0 0 1-1.254-1.22m-4.664-.058a4.699 4.699 0 0 1-1.772-1.358c-.08-.104.065-.25.15-.146a4.56 4.56 0 0 0 1.726 1.323c.123.055.02.235-.104.181m-.646-1.574a9.88 9.88 0 0 0 1.392.808c.123.058.016.235-.104.181-.488-.23-.95-.5-1.391-.808-.108-.077-.004-.258.103-.18m4.568-.663l-.02-.062.047-.084c.046-.03.111-.023.142.027.004.004.12.165.323.416l.008.004c1.057.666 1.723 1.617 1.838 1.785.196.155.408.3.623.44.046.03.061.096.03.142a.102.102 0 0 1-.142.035 7.338 7.338 0 0 1-.63-.443 11.71 11.71 0 0 1-1.877-1.824c-.219-.262-.338-.431-.342-.435m-2.88.054c0-.135.212-.135.212 0 0 .134-.212.134-.212 0m-3.594-1.336a4.223 4.223 0 0 1-.631-1.009c-.058-.119.123-.227.177-.104.158.347.353.67.6.967.084.1-.062.25-.146.146m2.506-.37a1.593 1.593 0 0 1-1.13.108c-.127-.034-.073-.235.057-.2.327.089.662.062.97-.088.118-.058.222.123.103.18m-.208-2.294a7.757 7.757 0 0 1-.422-.658 11.809 11.809 0 0 1-1.196-2.92l-.004-.024c0-.046.035-.088.08-.1a.11.11 0 0 1 .128.077c.004.004.05.204.15.527a6.594 6.594 0 0 1 1.026 2.344c.123.216.262.427.408.632a.104.104 0 0 1-.023.146.105.105 0 0 1-.147-.024m-1.303-.08a3.668 3.668 0 0 1-.788-1.863c-.015-.135.192-.131.207 0a3.4 3.4 0 0 0 .727 1.712c.081.104-.065.255-.146.15m-3.748-2.655c.061.366.177.704.357 1.028.065.115-.115.223-.18.104a3.241 3.241 0 0 1-.377-1.078c-.023-.131.176-.185.2-.054m-.1 2.24a3.872 3.872 0 0 1-.624-3.36c.035-.13.235-.077.2.054a3.67 3.67 0 0 0 .604 3.202c.077.108-.104.212-.18.104m1.31-4.238c.166-.115.331-.23.5-.35.108-.077.212.104.104.181-.165.115-.33.235-.5.35-.107.077-.211-.104-.103-.18m-2.565-.532l-.3-.3c-.092-.096.054-.242.146-.15l.3.3c.096.096-.05.243-.146.15m.646-.85c-.096-.09.05-.24.15-.147.1.097.22.15.354.17.053.007.084.077.073.127-.02.057-.073.08-.127.073a.834.834 0 0 1-.45-.224m1-.48a2.237 2.237 0 0 1-1.17-1.086c-.06-.12.12-.223.178-.104.222.447.584.797 1.046.99.123.05.068.253-.054.2m-2.377-2.61a3.457 3.457 0 0 1-.088-1.955c.03-.131.23-.073.2.057-.15.62-.115 1.24.089 1.844.042.127-.158.18-.2.054m-1.05-.581c.015-.231.035-.466.05-.697.011-.135.219-.135.208 0-.016.231-.035.466-.05.697-.008.134-.216.134-.208 0m3.591-3.256c.088-.212.208-.427.327-.574l.011-.015c.073-.085.146-.143.216-.15a.103.103 0 1 1 .03.204l-.03.023c1.56 2.27.222 4.641.211 4.665l-.008.007c.027.042.054.081.085.124a.1.1 0 0 1-.023.142.1.1 0 0 1-.142-.02c-.77-1.035-.985-2.028-.985-2.82 0-.759.2-1.332.308-1.586m-2.518.812c-.058-.02-.081-.074-.073-.131a.998.998 0 0 1 .169-.42c.073-.111.253-.007.177.104a.928.928 0 0 0-.146.373c-.008.054-.078.085-.127.074m.08-3.099c.066-.839.289-1.643.666-2.397.06-.12.238-.012.18.107a6.103 6.103 0 0 0-.638 2.29c-.012.135-.22.135-.208 0m4.207-3.079c-.32-.104-.62-.22-.842-.481-.458-.539-.339-1.29-.116-1.905.08-.215.434-.123.354.1-.208.55-.361 1.324.204 1.724.242.17.65.289.984.316.392.034.715-.146.996-.412.519-.497.919-1.128 1.319-1.717.488-.72 1.057-1.439 1.318-2.278.108-.343.189-.778-.026-1.093-.227-.335-.7-.458-1.08-.408-1.254.165-2.246 1.536-2.904 2.47-.134.19-.45.008-.315-.184.584-.827 1.242-1.659 2.1-2.213.407-.266.895-.477 1.387-.446.542.034 1.115.361 1.261.908.146.535-.057 1.112-.28 1.593-.45.962-1.13 1.86-1.761 2.714-.346.47-.73 1.012-1.269 1.281-.427.216-.888.17-1.33.031M22.9 44.71c-.05-.03-.062-.092-.039-.142.016-.035.035-.066.05-.1a.107.107 0 0 1 .143-.039.11.11 0 0 1 .038.142c-.02.035-.035.07-.05.1a.107.107 0 0 1-.142.04m-.35-.767a1.34 1.34 0 0 1 .277-.546c.088-.1.234.046.15.146a1.07 1.07 0 0 0-.223.454c-.031.131-.235.077-.204-.054m4.995-1.816c-.447.704-.977 1.327-1.654 1.809a.7.7 0 0 0 .262-.062c.122-.054.226.123.107.177-.492.22-1.077.02-1.157-.558-.096-.693.438-1.443.804-1.982.41-.612.734-1.317 1.357-1.736.457-.312 1.126-.489 1.48.058.073.115-.104.22-.177.107a.566.566 0 0 0-.177-.18c.092.885-.384 1.643-.845 2.367m-3.292-1.059c.335-.566.708-1.104 1.123-1.617.08-.103.226.047.146.15-.403.497-.765 1.02-1.092 1.57-.066.117-.246.013-.177-.103m5.933.731c-.177.031-.461.443-.573.566-.254.273-.496.554-.742.835-.261.3-.504.612-.738.935-.15.213-.304.42-.446.64-.146.227-.4.561-.431.835-.016.135-.223.135-.208 0 .058-.512.527-1.047.816-1.455.26-.362.526-.712.815-1.05.292-.336.588-.675.892-1.002.126-.134.357-.47.561-.504.13-.023.185.177.054.2m-5.33 5.046c-.057.185-.11.366-.164.547-.04.127-.243.073-.2-.054l.16-.546c.04-.128.243-.074.205.053m-1.146.12c.031-.047.089-.07.142-.04.047.028.07.097.035.144-.03.05-.066.1-.1.15-.03.046-.088.069-.142.038-.046-.027-.066-.096-.035-.142.031-.05.065-.1.1-.15m-1.661.18c-.015.082-.034.166-.05.247-.011.058-.077.088-.126.073-.059-.015-.085-.073-.074-.127.015-.085.035-.166.05-.25.012-.054.077-.085.127-.074.058.016.085.074.073.131m6.963-9.24l.25-.25c.096-.097.242.049.15.145-.085.085-.17.166-.25.25-.096.097-.242-.053-.15-.146m-2.253-.111c.6-.647 1.238-1.259 1.915-1.829.1-.084.25.062.146.147a22.13 22.13 0 0 0-1.915 1.828c-.092.1-.238-.046-.146-.146m3.638-2.983c.103-.212.419-.027.31.18-.26.517-.491 1.282.062 1.702.262.193.635.35.954.389.415.05.769-.181 1.072-.44.573-.48 1.058-1.077 1.542-1.639.5-.581 1.065-1.162 1.346-1.893.111-.293.192-.663.015-.951-.196-.32-.638-.481-1.003-.466-1.219.046-2.3 1.22-3.05 2.052-.157.173-.415-.085-.257-.258.846-.936 2.219-2.387 3.65-2.133.503.089 1.01.454 1.106.978.093.508-.142 1.031-.396 1.459-.511.858-1.25 1.605-1.918 2.34-.415.45-.877.978-1.458 1.216-.422.17-.846.104-1.253-.07-.323-.134-.638-.288-.842-.588-.392-.581-.173-1.309.12-1.878m3.433 0c-.542.662-1.127 1.24-1.873 1.647a.707.707 0 0 0 .25-.027c.127-.038.185.162.054.2-.538.158-1.069-.165-1.03-.754.042-.65.565-1.24.968-1.71.47-.542.873-1.204 1.527-1.539.469-.238 1.145-.354 1.426.22.058.12-.123.223-.18.104a.544.544 0 0 0-.146-.193c-.016.8-.504 1.451-.996 2.052m-5.567 2.89c-.097.096-.243-.05-.146-.146.13-.135.264-.266.4-.4.092-.096.242.054.145.146-.135.135-.265.27-.4.4m7.102-2.22c-.127.03-.277.234-.37.323-.134.13-.269.261-.4.396a4.89 4.89 0 0 0-.357.393c-.173.204-.534.531-.565.804-.015.131-.223.131-.207 0 .03-.254.261-.504.415-.696a7.14 7.14 0 0 1 .522-.6c.185-.19.37-.374.562-.555.092-.089.215-.23.346-.266.127-.034.185.166.054.2m1.976-4.992c-.054-.011-.085-.076-.07-.13.016-.058.074-.081.128-.074.08.02.165.035.25.05.054.012.084.078.073.131-.015.054-.073.081-.13.073a4.429 4.429 0 0 0-.25-.05m.088-.75c-.077-.108.103-.212.18-.104.15.22.423.312.677.242.13-.034.184.166.057.2a.836.836 0 0 1-.914-.338m-2.576-.424a8.724 8.724 0 0 0 1.422-1.782c.07-.112.25-.008.18.108A8.99 8.99 0 0 1 35 29.46c-.097.092-.243-.054-.146-.146m2.51-2.944l.031-.039c.458-.662.973-1.3 1.553-1.863.592-.573 1.442-1.347 2.338-1.204.185.026.4.104.534.242l.008.012h.004l.034.019c.173.115.304.27.362.477.119.396-.035.831-.215 1.185-.404.809-1.065 1.47-1.654 2.14-.6.682-1.484 1.925-2.552 1.54-.293-.108-.616-.265-.789-.535-.392-.628-.02-1.436.346-1.974M40.78 22.5c.9-.192 1.83.128 2.406.847.085.104-.061.254-.146.146a2.229 2.229 0 0 0-2.203-.792c-.13.026-.188-.174-.057-.2m1.284-.524c-.135.004-.135-.204 0-.208.442-.023.857.22 1.06.612.062.12-.118.227-.18.108a.922.922 0 0 0-.88-.512m1 4.615c-.128.03-.278.234-.37.323-.134.131-.27.262-.4.397a4.973 4.973 0 0 0-.358.392c-.172.204-.534.531-.564.8-.016.135-.224.135-.208 0 .027-.25.261-.5.415-.692.166-.208.335-.412.523-.6.185-.19.37-.374.561-.555.092-.088.212-.23.343-.265.13-.035.184.165.057.2m-6.986 2.744c0 .135-.208.135-.208 0s.208-.135.208 0m7.978-8.152l-.453-.242c-.116-.066-.012-.243.107-.181.15.08.3.161.45.246.12.062.012.243-.104.177m-.142-1.363c-.035-.126.165-.184.2-.053.112.411.465.723.892.766.13.015.134.223 0 .208a1.259 1.259 0 0 1-1.092-.92m.511-1.929l.012-.034c.246-.609.538-1.201.907-1.74.385-.562.935-1.255 1.669-1.3.227-.013.438.041.634.15l.047.026.042.023c.165.085.3.192.4.358.569.974-.466 2.37-.92 3.16-.407.712-.907 1.694-1.88 1.436-.284-.077-.58-.193-.78-.42-.4-.458-.327-1.128-.13-1.659m3.96.908c-.116.043-.254.274-.331.366-.12.143-.238.289-.358.435-.126.158-.242.32-.353.489-.139.208-.431.547-.435.796 0 .135-.208.135-.208 0 .004-.265.247-.573.381-.78a7.39 7.39 0 0 1 .427-.601c.165-.204.33-.412.504-.608.088-.1.184-.247.319-.297.123-.046.176.154.053.2m-.23-4.172c-.3-.15-.638-.161-.942-.019-.123.054-.227-.127-.108-.18a1.307 1.307 0 0 1 1.154.018c.119.062.015.243-.104.181m.138-.63a1.022 1.022 0 0 0-.442-.093c-.134-.004-.134-.212 0-.212.193.004.373.046.55.123.119.054.015.235-.108.181m.166-1.728c-.093-.096.054-.247.15-.15a.972.972 0 0 0 1.26.123c.112-.077.216.104.104.177a1.176 1.176 0 0 1-1.514-.15m2.618-5.743a.31.31 0 0 0-.304-.057c-.127.038-.18-.162-.054-.2a.513.513 0 0 1 .504.111c.104.085-.046.231-.146.146m-.185-.677c-.05-.03-.1-.066-.15-.096-.05-.035-.069-.093-.038-.143.027-.05.096-.069.142-.038.05.034.1.065.15.1a.11.11 0 0 1 .039.142c-.031.046-.096.07-.143.035m.196-.689c0-.131.208-.131.208 0 0 .135-.208.135-.208 0M31.26 175.515c.011-.023.042-.077.011-.147-.112-.257-.219-.52-.327-.78-.153.03-.319.034-.484.019-.266-.02-.266-.435 0-.416.6.05.957-.166.988-.797.042-.978-.315-1.993-.608-2.906-.407-1.266-.792-2.613-1.495-3.752-.231-.37-.604-.91-1.062-.943a.406.406 0 0 0-.25.058c-.091.046-.038.01-.08.053-.185.193-.48-.1-.292-.292l.073-.062a75.535 75.535 0 0 1-.988-3.683 1.81 1.81 0 0 1-.516-.05c-.261-.058-.15-.458.112-.4.584.134.946-.054 1.069-.659.184-.939-.027-1.997-.185-2.925-.22-1.304-.407-2.694-.934-3.918-.173-.408-.462-1.028-.942-1.128a.407.407 0 0 0-.258.024l-.08.046c-.212.11-.474-.162-.27-.32a.747.747 0 0 1 .339-.15 62.982 62.982 0 0 1-.273-3.364 2.088 2.088 0 0 1-.627-.116c-.254-.084-.146-.488.111-.404.497.166.954.166 1.196-.361.323-.705.285-1.606.277-2.364-.008-1.058.02-2.205-.304-3.225-.119-.377-.323-.839-.734-.966a.895.895 0 0 0-.246-.023l-.123.034.03-.015c-.241.104-.453-.254-.21-.358a.977.977 0 0 1 .684-.03c.1-1.436.253-2.872.461-4.273a2.21 2.21 0 0 1-.584-.27c-.227-.142-.016-.504.211-.361.45.288.896.392 1.257-.073.489-.628.673-1.528.854-2.283.246-1.024.554-2.117.476-3.179-.026-.377-.118-.859-.476-1.067a.87.87 0 0 0-.239-.08l-.115.004.004-.004c-.246.012-.342-.362-.084-.404a.892.892 0 0 1 .365.019c.407-1.39.873-2.768 1.391-4.1-.042-.03-.084-.06-.126-.092-.208-.161 0-.52.211-.358.42.324.858.486 1.265.058.57-.592.834-1.516 1.088-2.278.323-.982.723-2.025.731-3.072 0-.38-.05-.862-.393-1.096a.52.52 0 0 0-.341-.1c-.27.018-.266-.397 0-.416.253-.02.53.108.71.28l.031.035c.235-.484.481-.978.727-1.482.442-.9.9-1.828 1.358-2.775l-.058-.042c-.216-.158-.008-.52.211-.362.396.293.854.512 1.28.15.527-.45.804-1.235 1.042-1.859.3-.785.685-1.64.662-2.494-.012-.335-.108-.696-.404-.885a.818.818 0 0 0-.254-.1c-.077-.02-.004-.007-.077-.012-.269-.007-.269-.423 0-.415.112.004.228.027.335.069a81.221 81.221 0 0 0 1.853-4.673c-.107-.042-.207-.092-.307-.142-.239-.127-.027-.485.207-.362.435.231.904.358 1.265-.054.458-.523.615-1.332.765-1.99.185-.812.446-1.72.293-2.563-.085-.473-.408-.935-.9-.874-.266.03-.262-.385 0-.416.188-.022.396.028.573.112.372-1.586.665-3.156.857-4.673a2.84 2.84 0 0 1-.261-.057c-.262-.066-.15-.466.11-.4.47.123.963.138 1.216-.343.311-.593.284-1.378.277-2.024-.008-.851.03-1.802-.296-2.603-.188-.461-.623-.87-1.096-.692-.25.092-.357-.308-.111-.404a1.01 1.01 0 0 1 .419-.05c-.12-1.967-.45-3.861-.98-5.631-.09.023-.178.038-.266.053-.262.043-.373-.357-.108-.4.566-.092 1.023-.315 1.008-.95-.027-.993-.631-2.029-1.062-2.89-.284-.578-.772-1.514-1.515-1.587a.828.828 0 0 0-.553.174c-.192.184-.488-.108-.296-.293l.054-.05c-.773-1.22-1.246-1.878-2.15-2.887-.042.027-.08.054-.123.081-.226.147-.434-.216-.211-.358.515-.327.8-.727.496-1.316-.45-.882-1.365-1.57-2.1-2.198-.48-.408-1.287-1.058-1.984-.843a.727.727 0 0 0-.357.235c-.015.02-.13.23-.088.123-.1.243-.504.135-.4-.111a.866.866 0 0 1 .084-.158l-.222-.197a85.873 85.873 0 0 1-1.904-1.712 9.163 9.163 0 0 1-.276-.266 2.398 2.398 0 0 1-.589.177c-.261.047-.373-.354-.111-.404.603-.108 1.037-.362.984-1.035-.035-.416-.193-.828-.35-1.216a15.395 15.395 0 0 0-.842-1.737c-.35-.619-.923-1.373-1.723-1.335a1.28 1.28 0 0 0-.503.13c-.058.032-.108.066-.162.097l-.027.02-.011.007c-.204.15-.484-.135-.285-.304.135-.111.293-.2.462-.258-.415-1.024-.581-2.07-.67-2.921a3.443 3.443 0 0 1-.584.12c-1.019.126-1.565-.905-1.78-1.749-.058-.23.292-.326.35-.1.146.566.411 1.294 1.038 1.467.265.073.454.023.742-.05.804-.208.865-.958.892-1.686.027-.758-.019-1.52-.038-2.278a9.434 9.434 0 0 0-.077-1.143.22.22 0 0 1-.042-.128l.003-.053.008-.024a4.09 4.09 0 0 0-.177-.711c-.153-.44-.465-.97-.968-.955-.073.004-.112.008-.216.015-.57.035-.903.535-1.092 1.028-.08.215-.434.123-.35-.096.23-.609.657-1.236 1.365-1.294a1.12 1.12 0 0 1 .162 0h.004a.81.81 0 0 1 .192-.015c.703.02 1.095.72 1.288 1.324.315-1.004.7-1.959 1.173-2.898l.01-.02a1.974 1.974 0 0 1-.088-.342c-.042-.23.308-.327.35-.096.02.1.05.396.143.443.05.027.261-.135.334-.197.634-.527 1.165-1.2 1.715-1.813.608-.67 1.196-1.374 1.584-2.197.139-.285.258-.6.265-.92v-.058l-.004-.07c-.038-.323-.21-.257-.473-.1-.2.12-.384-.196-.18-.315.153-.092.342-.173.519-.18.72-.87 1.138-1.367 2.142-2.526a.207.207 0 0 1 .292-.019.208.208 0 0 1 .023.293l-.073.084c.08.166.246.016.434-.139.63-.5 1.173-1.154 1.688-1.766.446-.527.892-1.116 1.13-1.77l.024-.066a.21.21 0 0 1-.27-.007.2.2 0 0 1-.069-.155c0-.05.02-.1.054-.138.919-1.036 1.803-2.001 2.826-3.122.485-.527 1.004-1.093 1.58-1.732a1.022 1.022 0 0 1-.057-.246c-.035-.231.319-.327.35-.096.011.077.053.27.065.273.073.023.308-.185.373-.243.703-.592 1.345-1.316 1.922-2.024.339-.42.711-.897.858-1.428.026-.088.026-.088.026-.161.005-.228-.126-.07-.284.034-.196.131-.377-.185-.18-.315.192-.128.41-.197.576-.158a52.733 52.733 0 0 0 2.453-3.499l-.023-.039c-.108-.208.208-.388.315-.18.02.038.047.111.089.134.119-.027.25-.223.319-.304.504-.588.973-1.247 1.38-1.901.223-.362.485-.785.515-1.216.004-.058 0-.074 0-.093l-.003-.008.003.005-.019-.07c-.08-.027-.161.046-.265.131-.18.146-.438-.108-.258-.258.066-.058.147-.12.23-.166l.02-.061c.496-.978.942-1.951 1.361-2.968-.392-.458-.173-1.285-.011-1.797l.007-.03a14.95 14.95 0 0 1 .662-1.648c.172-.35.511-1.143 1.007-1.093l.058.011c.215-.823.357-1.566.453-2.201l.008-.043.008-.08c.027-.228.054-.458.085-.69l.007-.065c.115-1.108.07-1.74.07-1.751l-.004-.016.003-.019c.03-.373.108-.835.189-1.335v-.004c-.05-.7-.208-1.101-.411-1.155-.423-.112-1.361 1.082-2.719 4.765-.03.085-.065.173-.104.262.262-.443.639-.95 1.157-.959.158-.004.3.047.427.131l.008.008.016.008.007.004.012.008.015.007a.787.787 0 0 1 .312.35c.15.324.11.716.042 1.055-.146.712-.492 1.39-.788 2.047-.254.566-.608 1.533-1.4 1.298-.876-.254-.888-1.201-.665-1.963l.03-.085c-2.787 5.789-8.346 12.625-12.776 17.593-5.413 6.07-10.35 10.743-10.4 10.793-6.675 7.14-6.794 14.472-5.717 19.364 1.165 5.303 3.94 8.964 3.971 8.998 1.688 2.148 3.634 3.776 5.517 5.354 3.969 3.318 7.714 6.451 8.367 13.83.365 4.16-.392 8.856-2.322 14.352-1.627 4.645-3.75 8.899-5.456 12.316a151.527 151.527 0 0 0-1.38 2.802c-.285.597-.65 1.29-1.073 2.09-3.926 7.456-13.119 24.91-4.13 58.373h7.971c.073 0 .112-.05.127-.07"/><path fill="#781517" fill-rule="evenodd" d="M7.823 153.675c0-2.567.117-5.277.399-7.999l.276-2.28a56.25 56.25 0 0 1 .824-4.587c2.288-10.193 4.986-17.694 6.596-20.99.08-.232.17-.47.266-.715a92.322 92.322 0 0 1 2.12-4.333c4.066-7.323 11.039-16.687 11.67-19.499.329-1.073.758-2.947.758-5.248 0-2.945-.702-6.589-3.215-10.152-3.871-4.647-5.086-4.906-7.687-7.963-1.892-2.224-4.679-6.173-5.2-11.824v-.004l-.001-.003a20.39 20.39 0 0 1-.084-1.676c0-1.237.113-3.104.611-5.354l.008-.031c1.895-8.103 7.471-14.13 9.087-15.742a38.578 38.578 0 0 1 .444-.428s15.312-13.06 18.099-18.86c.24-.329.476-.654.707-.976 2.126-2.83 3.957-4.472 5.194-9.452.053-.214.108-.42.165-.617.552-1.48 1.146-2.876 1.915-3.792C51.763.104 52.621.14 52.621.14s.38.22.534.721c.036.179.053.39.053.634 0 0-.48-1.111-1.447.007-.485.56-.955 2.2-1.556 4.24-.223.522-.461 1.12-.714 1.806-.03.085-.065.174-.104.262.1-.167.215-.344.348-.5a63.137 63.137 0 0 1-.535 1.664c-.113.287-.21.577-.298.855-.141.393-.29.785-.446 1.173a1.702 1.702 0 0 1-.048-.416c0-.26.048-.53.122-.782l.03-.085c-6.294 11.042-14.067 19.613-23.176 28.386-4.822 5.158-6.223 10.417-6.223 14.783 0 1.678.207 3.223.506 4.581 1.165 5.304 3.94 8.964 3.971 8.998 1.688 2.148 3.633 3.776 5.517 5.354 3.968 3.318 7.713 6.451 8.367 13.83.06.674.089 1.363.089 2.066 0 2.892-.502 6.04-1.52 9.524-3.971 8.774-11.298 17.842-14.735 26.12-2.76 6.647-5.252 15.68-5.252 27.2 0 7.136.955 15.224 3.395 24.293h-8.76c-.484-1.724-1.432-5.32-1.885-8.544-.56-2.93-1.03-7.495-1.03-12.635m14.289-92.188c.236.444.488.876.753 1.3a.108.108 0 0 1-.131-.038 3.845 3.845 0 0 1-.622-1.262m1.848-18.546a3.71 3.71 0 0 1 .142-.49c.037-.098.13-.133.213-.12-.12.202-.238.405-.355.61m.96-1.877c0-.03.01-.063.032-.095.344-.487.713-.975 1.133-1.408-.365.532-.726 1.08-1.08 1.64a.165.165 0 0 1-.086-.137m1.424 26.938c0-.086.107-.162.174-.08a4.56 4.56 0 0 0 1.726 1.324c.04.017.055.048.055.079 0 .067-.075.14-.159.103a4.699 4.699 0 0 1-1.772-1.36.107.107 0 0 1-.024-.066m2.331-32.037a.103.103 0 0 1 .109-.017c-.171.211-.344.428-.518.65m2.186 35.369c0-.073.105-.141.184-.08a66.176 66.176 0 0 1 4.09 3.537.09.09 0 0 1 .034.07c0 .076-.103.147-.18.076a66.185 66.185 0 0 0-4.09-3.537c-.027-.02-.038-.043-.038-.066m6.568-44.973a3.62 3.62 0 0 1 .344-.624l.031-.039c.458-.662.973-1.3 1.553-1.863.201-.195.433-.413.685-.61-.901 1.107-1.79 2.17-2.613 3.136m7.603-9.574c.204-.453.44-.892.72-1.3.233-.341.527-.731.887-.995a71.956 71.956 0 0 1-1.607 2.295"/><path fill="#0a090d" stroke="#000" stroke-linecap="round" stroke-linejoin="round" stroke-width=".213" d="M-27.576 95.06c0-1.608.185-3.336.616-5.185-.5 2.26-.615 4.136-.615 5.377l-.001-.192m.086 1.876v0m1.563 59.281c.516-1.3 1.257-2.779 2.131-4.351a92.68 92.68 0 0 0-2.13 4.351m8.11-82.183a15.097 15.097 0 0 1 0 0M.827 54.662v-.001c.24-.345.477-.67.71-.98-.231.325-.468.651-.71.98M6.925 43.57c.56-1.954 1.272-3.117 1.926-3.81-.773.922-1.37 2.324-1.926 3.81m4.319-4.099c.04.128.064.275.064.44 0 .063-.004.129-.011.197 0-.246-.018-.458-.053-.637" transform="matrix(.99464 0 0 .99568 41.972 -38.44)"/><path fill="#d23b2f" stroke="#000" stroke-linecap="round" stroke-linejoin="round" stroke-width=".213" d="M6.968 48.478c.089-.279.186-.57.3-.859-.097.286-.197.573-.3.859" transform="matrix(.99464 0 0 .99568 41.972 -38.44)"/><path fill="#bc4b4e" d="M19.16 52.888c0-4.366 1.402-9.625 6.224-14.783.05-.05 4.986-4.723 10.4-10.792 4.43-4.97 9.99-11.805 12.776-17.594l-.03.085a2.841 2.841 0 0 0-.122.782c0 .144.015.285.048.416-.184.46-.38.915-.586 1.358-.335.718-.907 1.67-1.64 2.765-.36.264-.654.654-.888.995-.28.408-.515.847-.72 1.3-1.485 2.043-3.263 4.318-4.99 6.438a8.689 8.689 0 0 0-.684.61c-.58.562-1.095 1.201-1.553 1.863l-.03.039c-.125.182-.25.397-.345.624-.199.232-.393.459-.584.679l.02-.033a.1.1 0 0 0 .016-.053c0-.09-.137-.15-.196-.055a8.724 8.724 0 0 1-1.422 1.782.094.094 0 0 0-.032.069c0 .029.014.056.036.076-.8.88-1.435 1.535-1.82 1.866-.745.639-2.386 2.313-4.254 4.623a.103.103 0 0 0-.11.017 21.563 21.563 0 0 0-1.914 1.828.104.104 0 0 0-.03.071c0 .082.105.153.176.075a21.99 21.99 0 0 1 1.36-1.342 57.102 57.102 0 0 0-2.18 2.964c-.42.433-.79.92-1.133 1.408a.165.165 0 0 0-.033.095c0 .057.036.107.086.138-.234.37-.465.747-.69 1.128-.083-.012-.176.023-.213.12a3.71 3.71 0 0 0-.142.49c-.297.52-.583 1.048-.858 1.583v-.004a.105.105 0 0 0-.05-.09.107.107 0 0 0-.142.038c-.015.035-.034.065-.05.1a.124.124 0 0 0-.01.051c0 .036.015.07.049.091.033.02.078.017.11-.004-.383.758-.74 1.53-1.063 2.308-.913 2.075-1.618 5.057-1.714 7.099-.006.152-.009.304-.009.455 0 2.461.76 4.801 1.889 6.92.126.45.335.879.622 1.262a.108.108 0 0 0 .13.037c3.386 5.407 8.822 9.077 8.822 9.077s7.11 5.062 7.11 14.564c-.14 3.752-1.207 7.474-2.706 10.813 1.018-3.483 1.52-6.631 1.52-9.523 0-.703-.03-1.392-.09-2.066-.653-7.379-4.398-10.512-8.366-13.83-1.884-1.578-3.829-3.206-5.517-5.354-.03-.034-2.806-3.695-3.971-8.998a21.327 21.327 0 0 1-.506-4.581m.798-.137c0-.124.01-.12 0 .01-.015.232.308.639.293.87l-.138-.161c-.082-.097-.213.12-.205-.012.015-.231.034-.466.05-.696v-.011m3.043-9.275c.012-.059.512 1.12-.175-.079.622.583.114.532-.277.546.53-.185.422.184.422.192 0 .111-.247-.016-.218-.137.038-.17.111-.32.223-.455a.102.102 0 0 0 .025-.067m2.585-3.552c0-.087-.106-.165-.17-.082-.415.512-.788 1.05-1.122 1.616a.102.102 0 0 0-.016.053c0 .09.137.149.193.051.326-.55.688-1.074 1.091-1.57a.107.107 0 0 0 .024-.068m2.712 29.4c0-.03-.016-.06-.055-.078a4.56 4.56 0 0 1-1.726-1.324c-.067-.083-.174-.007-.174.08 0 .022.007.045.024.067a4.699 4.699 0 0 0 1.772 1.358c.084.037.16-.036.16-.103m6.46 6.17a.09.09 0 0 0-.033-.07 66.18 66.18 0 0 0-4.091-3.537c-.079-.061-.184.007-.184.08 0 .023.011.046.038.066a66.192 66.192 0 0 1 4.09 3.537c.077.07.18 0 .18-.077M49.387 7.81c.038-.088.073-.177.104-.262.253-.686.49-1.284.714-1.805-.148.501-.304 1.027-.47 1.567a3.532 3.532 0 0 0-.348.5"/><path fill="#68606f" stroke="#000" stroke-linecap="round" stroke-linejoin="round" stroke-width=".213" d="M-17.32 94.317l.048-.04a4.94 4.94 0 0 0 .063-.05l-.103.183-.003-.031-.005-.062m.356 93.81l.083-.027.078 2.29a63.59 63.59 0 0 1-.156-2.174l-.005-.088m.67-100.712c.23-.625.494-1.237.796-1.847l.045-.09.096.031.014.004-.923 1.869-.028.033m1.258 113.61l.094-.037.006-.002.255 1.447a71.43 71.43 0 0 1-.332-1.31l-.023-.098m.05-6.33c.048.19.086.38.12.58-.034-.181-.073-.376-.12-.58m.177-26.1l.011-.038.055.104-.007-.004-.059-.063m.379 29.137c.122.438.17.83.17 1.175 0 .077-.002.152-.007.224a11.77 11.77 0 0 0-.117-1.065l-.024-.17-.022-.164m.152-30.846c.27-.82.564-1.642.878-2.457l.043-.11-.921 2.567m.476-82.606c.104-.114.206-.228.307-.341l.256-.285c-.195.235-.384.443-.563.626m.24 18.856l.087-.082a.899.899 0 0 0 .248-.375l.013-.04c-.041.398-.348.497-.348.497m2.31-23.558l.052-.062.103-.126-.1.284-.055-.096m.232 25.864l.079-.053v.125l-.079-.072m1.658-28.1v0l.003.003-.003-.004m.22 28.19c.987.554 2.157 1.538 2.782 2.568a5.744 5.744 0 0 0-.59-.697 17.816 17.816 0 0 0-1.201-1.112l-.115-.1a6.066 6.066 0 0 0-.876-.66m2.197-29.872a17.097 17.097 0 0 0 0 0m5.022 65.493a8.05 8.05 0 0 0 .218-.663c.037-.131.072-.262.105-.394a4.157 4.157 0 0 1-.323 1.057m.459-22.365l.086-.041c.125-.061.23-.135.316-.222a.806.806 0 0 1-.402.263m.788 12.382v0l.1-.003.022-.001c-.075.008-.122.004-.122.004m6.583-71.716l.112-.153c.129-.174.26-.351.386-.53a16.714 16.714 0 0 1-.498.683m1.176-3.035l.03-.058a.923.923 0 0 0 .013.08l-.043-.022m.663-1.364c.228-.493.445-.989.654-1.496l.034-.084-.625 1.523s-.024.02-.063.057m2.36-5.908l.009-.034.013-.05a.73.73 0 0 1 .016.17v.033a1.198 1.198 0 0 0-.026-.084l-.013-.035m.714-5.229c.032-.376.11-.86.197-1.378l.082-.511a80.653 80.653 0 0 1-.267 1.765c.007.118.01.24.01.366 0 .16-.005.329-.015.5.003-.112.004-.213.004-.302 0-.228-.008-.371-.011-.44" transform="matrix(.99464 0 0 .99568 41.972 -38.44)"/><path fill="#bc4b4e" d="M21.838 147.687c0-4.029.416-8.186 1.51-12.096a123.236 123.236 0 0 1 2.54-7.988c.053.035.142.026.168-.053.104-.297.208-.597.308-.893a.104.104 0 0 0 .007-.037c0-.053-.047-.087-.097-.09 1.244-3.42 2.58-6.686 3.925-9.784.303-.078.603-.077.914.004.076.02.127-.044.127-.106 0-.04-.022-.08-.074-.095a2.024 2.024 0 0 0-.864-.038c1.683-3.867 3.378-7.468 4.918-10.768.093-.025.185-.05.28-.074a.095.095 0 0 0 .074-.096c0-.063-.052-.13-.129-.108l-.11.03c1.158-2.48 2.225-4.79 3.13-6.911 1.328-3.108 1.879-6.394 1.879-9.59 0-1.737-.163-3.448-.453-5.087a9.24 9.24 0 0 0-.408-2.113.096.096 0 0 0-.06-.066c-.86-3.39-2.239-6.357-3.77-8.456-1.992-2.732-4.21-4.288-6.266-5.987a.108.108 0 0 0 .007-.04c0-.092-.099-.121-.161-.087a26.051 26.051 0 0 1-1.635-1.467 1.64 1.64 0 0 0 .496-.15c.037-.019.053-.049.053-.08 0-.068-.075-.141-.157-.102a1.35 1.35 0 0 1-.585.14 14.988 14.988 0 0 1-3.058-4.444 16.138 16.138 0 0 1-1.304-4.442l.084.036c.074.033.123-.029.123-.094a.11.11 0 0 0-.07-.106 2.014 2.014 0 0 1-.168-.08 15.17 15.17 0 0 1-.079-.809c.255.204.569.317.947.27.193-.028.396-.059.585-.12.088.85.254 1.898.67 2.921-.17.058-.328.147-.463.258a.176.176 0 0 0-.068.136c0 .146.198.282.353.168l.011-.007.027-.02c.054-.03.104-.065.162-.096a1.28 1.28 0 0 1 .503-.13c.8-.04 1.373.715 1.723 1.335.315.554.6 1.147.842 1.736.158.388.315.8.35 1.216.003.038.004.074.004.11 0 .591-.419.824-.988.925a.171.171 0 0 0-.15.176c0 .122.104.256.261.228.2-.034.404-.092.589-.177.088.089.18.177.276.266.588.55 1.227 1.116 1.904 1.713l.223.196a.864.864 0 0 0-.085.158.202.202 0 0 0-.017.078c0 .188.328.249.417.033a.121.121 0 0 0-.01.03c0 .018.085-.136.098-.152a.727.727 0 0 1 .358-.235c.696-.216 1.503.434 1.984.843.734.627 1.65 1.316 2.099 2.197a.995.995 0 0 1 .125.457c0 .352-.251.625-.62.86a.196.196 0 0 0-.097.17c0 .145.15.29.307.188.043-.027.081-.054.123-.081.904 1.008 1.377 1.666 2.15 2.886l-.054.05a.186.186 0 0 0-.063.137c0 .157.21.299.359.156a.828.828 0 0 1 .553-.173c.743.073 1.231 1.008 1.516 1.585.43.862 1.034 1.898 1.06 2.891v.031c0 .611-.45.829-1.007.92-.106.017-.152.091-.152.171 0 .12.103.254.26.229.088-.016.177-.031.266-.054.53 1.77.86 3.664.98 5.631a1.015 1.015 0 0 0-.42.05.215.215 0 0 0-.138.207c0 .128.099.253.25.197.473-.177.908.23 1.096.693.327.8.288 1.751.296 2.602.002.135.004.277.004.422 0 .545-.035 1.134-.28 1.603-.254.48-.747.465-1.216.342-.157-.04-.26.09-.26.213 0 .082.045.161.149.187.084.023.173.043.26.058a45.562 45.562 0 0 1-.856 4.672 1.075 1.075 0 0 0-.573-.111c-.131.016-.198.128-.198.232 0 .103.066.199.198.184.492-.062.815.4.9.873.032.179.046.36.046.542 0 .681-.193 1.381-.339 2.022-.15.658-.307 1.466-.765 1.99-.361.411-.83.284-1.265.054-.162-.085-.312.058-.312.197 0 .063.03.125.105.164.1.05.2.1.307.143a81.225 81.225 0 0 1-1.853 4.672 1.022 1.022 0 0 0-.335-.07c-.134-.003-.201.099-.201.203 0 .104.067.21.201.213.073.004 0-.007.077.012.096.023.173.05.254.1.296.189.392.55.404.886l.001.073c0 .83-.371 1.658-.662 2.42-.239.624-.516 1.409-1.042 1.86-.427.361-.885.142-1.28-.15-.155-.112-.303.034-.303.185 0 .064.027.13.09.176l.059.043c-.458.947-.916 1.874-1.358 2.775-.246.504-.492.997-.727 1.481l-.03-.034c-.18-.173-.458-.3-.711-.281-.134.01-.201.119-.201.223 0 .104.066.202.2.192a.522.522 0 0 1 .342.1c.343.235.393.717.393 1.098-.008 1.046-.408 2.09-.73 3.071-.255.762-.52 1.686-1.089 2.278-.407.428-.846.266-1.265-.057-.15-.115-.297.031-.297.183 0 .063.025.127.086.175l.127.092a50.418 50.418 0 0 0-1.392 4.1.892.892 0 0 0-.365-.02c-.107.017-.153.092-.153.172 0 .113.093.239.237.232l-.004.004.115-.004c.031.004.17.038.239.08.358.209.45.69.477 1.067.008.114.012.227.012.341 0 .954-.27 1.924-.489 2.838-.18.755-.365 1.655-.854 2.283-.361.465-.807.361-1.257.073-.158-.1-.309.046-.309.192 0 .063.03.126.098.17.184.115.384.215.584.269a55.575 55.575 0 0 0-.461 4.272.977.977 0 0 0-.685.03c-.075.034-.107.09-.107.151 0 .133.152.28.319.208l-.03.016.122-.035a.89.89 0 0 1 .246.023.803.803 0 0 1 .349.225c.18.25.32.554.43.891.276.982.252 2.069.26 3.076.001.18.005.369.005.56 0 .616-.037 1.266-.283 1.803-.242.527-.7.527-1.195.362-.156-.051-.257.075-.257.202 0 .084.044.168.145.202.204.07.42.111.627.115.058 1.113.154 2.24.273 3.364a.746.746 0 0 0-.339.15c-.052.04-.073.088-.073.135 0 .137.185.268.342.185l.081-.046a.406.406 0 0 1 .258-.024.777.777 0 0 1 .333.168l.003.002c.1.111.195.22.283.327.138.207.243.442.323.631.527 1.224.715 2.614.934 3.918.114.671.257 1.41.257 2.124 0 .273-.021.542-.072.801-.123.605-.485.793-1.069.659-.158-.035-.26.096-.26.219 0 .08.044.158.148.18.173.04.346.062.516.05.292 1.217.626 2.456.988 3.684l-.073.062a.196.196 0 0 0-.06.139c0 .16.21.302.352.153.042-.042-.011-.007.08-.053a.406.406 0 0 1 .25-.058c.458.034.831.573 1.062.943.703 1.139 1.088 2.486 1.495 3.753.277.862.611 1.817.611 2.745 0 .054 0 .107-.003.16-.03.631-.389.847-.988.797-.133-.01-.2.09-.2.193 0 .104.067.213.2.223.165.015.33.011.484-.02l.11.267h-3.157a296.425 296.425 0 0 1-1.955-4.377c-.726-.86-4.103-11.313-4.103-22.79m1.16 3.067c0-.113-.177-.152-.202-.03-.023.123-.05.25-.077.374a.115.115 0 0 0-.002.02c0 .116.18.161.206.037.023-.127.05-.25.073-.377a.152.152 0 0 0 .002-.024m.606-11.917a.1.1 0 0 0-.032-.071c-.1-.1-.2-.2-.3-.297-.07-.074-.175-.004-.175.077 0 .024.009.048.03.07l.3.3c.073.07.177 0 .177-.08m.746-.901a.102.102 0 0 0-.074-.1 1.237 1.237 0 0 1-.842-.967c-.022-.124-.202-.082-.202.033l.002.02c.096.528.48.951.988 1.117.077.023.128-.04.128-.103m-.747 13.266c0-.134-.207-.134-.207 0 0 .135.207.135.207 0m1.092-92.945c0-.075-.074-.149-.15-.094l-.5.35a.105.105 0 0 0-.045.087c0 .075.074.148.15.094.168-.116.334-.235.5-.35a.104.104 0 0 0 .045-.087m.12 106.055c0-.131-.204-.13-.208.004l-.001.058c0 .349.096.682.285.977.058.094.194.036.194-.05a.097.097 0 0 0-.017-.054 1.598 1.598 0 0 1-.255-.872l.001-.059v-.004m.317-21.512a.102.102 0 0 0-.086-.1.101.101 0 0 0-.119.085 9.427 9.427 0 0 0-.077.654v.008l-.004.039a18.672 18.672 0 0 0-.076 1.666c0 .72.042 1.536.18 2.348.011.058.066.096.12.085a.105.105 0 0 0 .088-.12c-.05-.3-.089-.6-.12-.897v-.003c.02-.107.132-.759.132-1.62 0-.444-.03-.943-.116-1.452v-.007c.038-.412.077-.658.077-.666a.095.095 0 0 0 .001-.02m.553 22.345c0-.01-.001-.021-.004-.032l-.289-1.051c-.035-.117-.208-.08-.208.028 0 .01.002.02.005.03.1.35.196.7.292 1.05.031.117.204.082.204-.025m1.069-102.062a.107.107 0 0 0-.024-.067 3.4 3.4 0 0 1-.727-1.713c-.014-.126-.208-.134-.208-.014l.001.014c.088.693.35 1.317.788 1.863.064.083.17.005.17-.083m.201 96.91a.107.107 0 0 0-.006-.035 16.396 16.396 0 0 1-.295-1.093c-.005-.165-.035-1.962-.593-3.775a17.968 17.968 0 0 1-.053-.82c-.005-.058-.05-.104-.108-.1-.058 0-.1.046-.1.104v.004c0 .007.011.319.054.827l.003.035c.073.858.24 2.263.589 3.737l.007.042c.089.365.189.735.3 1.101.016.054.074.084.131.07a.1.1 0 0 0 .071-.097m.21-29.046a.11.11 0 0 0-.062-.098.107.107 0 0 0-.138.054c-.008.023-.946 2.228-1.135 4.576v.008c0 .054.043.1.097.104a.1.1 0 0 0 .111-.092c.023-.305.062-.605.108-.897l.004-.016c.077-.165.653-1.478.772-2.986.135-.381.23-.608.235-.612a.105.105 0 0 0 .009-.04m-.724 33.52a.105.105 0 0 0-.004-.03l-.15-.6c-.032-.12-.204-.08-.204.025 0 .01.001.019.004.029l.15.6c.032.12.204.081.204-.025m1.635-101.281a.107.107 0 0 0-.02-.062 7.319 7.319 0 0 1-.407-.632 6.594 6.594 0 0 0-1.027-2.344c-.1-.323-.146-.523-.15-.527a.11.11 0 0 0-.127-.077.107.107 0 0 0-.081.1l.004.024a11.809 11.809 0 0 0 1.195 2.921c.128.223.27.442.423.658.035.046.1.057.147.023a.105.105 0 0 0 .043-.084m-.524 109.28a.11.11 0 0 0-.004-.03 2.696 2.696 0 0 0-.476-.942c-.068-.086-.174-.008-.174.079 0 .023.007.046.023.067.2.254.343.539.427.85.032.121.204.085.204-.024m3.339.241a.107.107 0 0 0-.01-.043 20.615 20.615 0 0 1-.453-1.043c-.027-.185-.32-1.956-1.127-3.66a13.798 13.798 0 0 1-.165-.793c-.011-.058-.065-.097-.12-.085a.1.1 0 0 0-.088.1l.004.02c.004.011.058.311.17.804.192.843.56 2.247 1.137 3.695.139.35.29.704.454 1.05.024.054.085.074.139.05a.104.104 0 0 0 .059-.095m.272-53.16a.106.106 0 0 0-.054-.094.106.106 0 0 0-.143.042c-.003.008-.123.23-.296.608v.004c-.292.636-.734 1.71-1.038 2.918l-.008.035c-.073.292-.138.592-.188.896l-.004.016c0 .05.035.092.089.104a.11.11 0 0 0 .119-.085c.054-.304.116-.604.188-.897l.004-.004c.097-.174.777-1.417 1.027-2.89.169-.378.288-.601.292-.605a.103.103 0 0 0 .012-.048m.6-3.485a.099.099 0 0 0-.032-.07l-.372-.373c-.075-.075-.18-.004-.18.077 0 .024.009.048.03.07.126.126.25.25.376.373.072.074.178.004.178-.077m3.306-46.256a.108.108 0 0 0-.046-.09 8.051 8.051 0 0 1-.623-.438c-.115-.169-.78-1.12-1.838-1.786l-.008-.004c-.203-.25-.319-.412-.323-.416-.03-.05-.096-.057-.142-.027l-.046.085.02.062c.003.004.122.173.341.435a11.71 11.71 0 0 0 1.877 1.824c.2.158.411.304.63.443.05.03.112.015.143-.035a.098.098 0 0 0 .015-.054m-.857.807a.098.098 0 0 0-.046-.083 4.407 4.407 0 0 1-1.18-1.147c-.065-.093-.2-.037-.2.048 0 .018.005.036.018.055.343.486.762.893 1.254 1.22.078.052.154-.02.154-.093m2.192 38.748a.107.107 0 0 0-.047-.088c-.05-.035-.111-.02-.146.027-.004.007-.123.189-.289.496a11.917 11.917 0 0 0-1 2.375l-.003.012c-.07.246-.131.5-.18.758l-.005.02c0 .049.035.091.085.103a.106.106 0 0 0 .123-.085c.046-.25.107-.492.177-.731.103-.15.754-1.124.992-2.363.162-.292.273-.466.277-.47a.098.098 0 0 0 .016-.054m-.676-2.675a.095.095 0 0 0-.075-.096c-.196-.05-.396-.104-.595-.157-.077-.019-.129.046-.129.109 0 .041.023.08.075.094.2.05.395.104.596.158.078.019.128-.046.128-.108m3.494-28.202a.1.1 0 0 0-.016-.052 5.071 5.071 0 0 1-.438-.924c-.039-.115-.206-.082-.206.02 0 .01.002.022.006.034.12.342.273.666.457.977.059.094.197.035.197-.055m1.174.136c0-.02-.006-.04-.017-.058a9.104 9.104 0 0 1-.396-.63c-.03-.155-.262-1.321-.992-2.376-.093-.319-.135-.52-.139-.527a.103.103 0 0 0-.122-.077c-.05.008-.081.054-.081.1v.023c.003.008.05.22.15.558.168.562.488 1.478.996 2.383.122.227.26.45.41.666a.109.109 0 0 0 .147.027.112.112 0 0 0 .044-.089m-.29 19.681a.107.107 0 0 0-.062-.094.109.109 0 0 0-.138.05c-.008.016-.639 1.39-.861 3.033l-.004.024c-.035.25-.058.5-.07.758v.007c0 .054.043.1.1.104a.106.106 0 0 0 .108-.1c.012-.254.035-.505.065-.747l.004-.004c.085-.165.589-1.22.642-2.482.116-.312.2-.497.204-.505a.09.09 0 0 0 .011-.044m-.044-3.9c0-.12-.194-.112-.209.015-.027.223-.054.45-.077.673v.013c0 .118.193.113.208-.013.023-.223.05-.45.077-.673V94.4m1.66-7.332a.104.104 0 0 0-.084-.102.11.11 0 0 0-.123.085c0 .004-.038.211-.08.546l-.005.008-.004.034c-.042.374-.088.897-.088 1.49 0 .335.015.693.054 1.059l.004.038c.023.246.061.5.111.75.008.058.065.093.12.081a.102.102 0 0 0 .084-.12 7.53 7.53 0 0 1-.108-.75c.029-.126.145-.68.145-1.4 0-.356-.029-.753-.11-1.16.038-.33.08-.534.08-.538a.08.08 0 0 0 .003-.021M22.895 54.487c0-.73.052-1.414.138-2.047.1.657.365 1.401.936 2.169a.1.1 0 0 0 .142.02.104.104 0 0 0 .043-.084.099.099 0 0 0-.02-.059 2.491 2.491 0 0 1-.085-.123l.008-.008c.008-.015.545-.968.545-2.24 0-.74-.182-1.59-.756-2.425l.03-.023a.103.103 0 0 0 .085-.115.103.103 0 0 0-.115-.089.222.222 0 0 0-.098.04c.15-.408.296-.745.423-1.003.309.164.513.545.628.874.08.231.138.47.177.712l-.008.024-.004.053a.22.22 0 0 0 .043.128c.054.377.069.762.077 1.143.015.594.046 1.191.046 1.787 0 .164-.002.327-.008.491-.027.728-.088 1.478-.892 1.686-.288.073-.477.123-.742.05a1.103 1.103 0 0 1-.583-.414c-.007-.185-.01-.368-.01-.547m1.448-6.312c.39-.703 1.216-2.017 2.188-3.447.466-.288.813-.776 1.129-1.204.63-.854 1.31-1.751 1.76-2.713l.013-.028c.601-.732 1.156-1.336 1.602-1.701.639-.524 1.43-1.387 2.357-2.483.153-.156.298-.317.439-.469.669-.735 1.407-1.482 1.918-2.34.042-.07.083-.143.122-.218 1.424-1.757 3.04-3.745 4.817-5.748 2.198-2.48 4.127-5.477 5.59-8.025.404-.291.688-.827.936-1.262.36-.625 1.083-1.631 1.086-2.506.336-.67.583-1.186.73-1.49.732-1.524 2.318-4.945 3.154-7.987.093-.34.179-.666.256-.979l.001.106c0 .297-.014.766-.078 1.382l-.008.066c-.03.23-.057.462-.085.689l-.007.08-.008.043a21.376 21.376 0 0 1-.453 2.201l-.058-.011c-.496-.05-.835.743-1.008 1.093a14.95 14.95 0 0 0-.66 1.647l-.009.031c-.094.3-.208.707-.208 1.085 0 .269.057.523.22.713a41.348 41.348 0 0 1-1.361 2.967l-.02.061a1.316 1.316 0 0 0-.23.166.153.153 0 0 0-.062.119c0 .13.182.25.32.14.104-.086.184-.159.265-.132l.02.07-.005-.005.004.008.002.047c0 .012 0 .027-.002.046-.03.43-.292.854-.515 1.216a15.832 15.832 0 0 1-1.38 1.901c-.07.081-.2.277-.32.304-.042-.023-.069-.096-.088-.134-.092-.178-.337-.071-.337.094 0 .028.006.057.022.087l.023.038a52.734 52.734 0 0 1-2.453 3.499c-.166-.039-.385.03-.577.158a.18.18 0 0 0-.084.153c0 .128.129.253.265.162.155-.102.284-.257.284-.044v.01c0 .073 0 .073-.027.161-.146.531-.518 1.009-.857 1.428-.577.708-1.219 1.432-1.923 2.024-.064.058-.3.266-.372.243a1.523 1.523 0 0 1-.066-.273c-.029-.22-.352-.143-.352.065l.002.031c.012.096.031.177.058.246-.577.64-1.096 1.205-1.58 1.732-1.023 1.12-1.907 2.087-2.826 3.122a.208.208 0 0 0-.054.138.2.2 0 0 0 .07.155c.08.069.191.069.268.007l-.023.066c-.238.654-.684 1.243-1.13 1.77-.516.612-1.058 1.266-1.688 1.767-.189.154-.354.304-.435.138l.073-.084a.21.21 0 0 0-.315-.273 120.953 120.953 0 0 0-2.141 2.524 1.167 1.167 0 0 0-.52.181.167.167 0 0 0-.088.148c0 .125.131.25.27.168.261-.158.434-.224.472.1l.004.07v.057c-.008.32-.127.635-.265.92-.389.823-.977 1.528-1.584 2.197-.55.612-1.08 1.286-1.715 1.813-.073.062-.285.224-.334.197-.093-.047-.124-.343-.143-.443-.04-.218-.353-.145-.353.058a1.973 1.973 0 0 0 .092.38l-.012.02a19.123 19.123 0 0 0-1.173 2.898c-.146-.462-.41-.98-.84-1.207m5.918-6.463c0-.06-.05-.126-.13-.112-.203.034-.434.37-.56.504-.304.327-.6.666-.893 1a16.49 16.49 0 0 0-.815 1.052c-.288.407-.757.942-.815 1.454v.014c0 .121.193.116.208-.014.03-.273.284-.608.43-.835.143-.22.297-.427.446-.64.235-.322.477-.634.739-.934.246-.281.488-.562.742-.835.111-.124.396-.535.572-.566a.085.085 0 0 0 .076-.088m5.178-6.327c0-.061-.052-.126-.128-.105-.131.035-.254.177-.346.265-.192.181-.377.366-.562.555a7.14 7.14 0 0 0-.523.6c-.153.192-.384.442-.414.696l-.002.014c0 .117.194.113.209-.014.03-.273.392-.6.565-.804a4.89 4.89 0 0 1 .357-.392c.131-.135.266-.266.4-.397.093-.088.242-.292.37-.323a.094.094 0 0 0 .074-.095m7.695-8.886c0-.062-.05-.127-.13-.106-.13.034-.25.177-.342.265a19 19 0 0 0-.561.554 7.065 7.065 0 0 0-.523.6c-.154.193-.388.444-.415.693l-.001.014c0 .121.193.117.208-.014.031-.269.392-.596.565-.8.112-.138.231-.266.358-.392.13-.135.265-.266.4-.397.092-.089.242-.292.369-.323a.094.094 0 0 0 .072-.094m5.319-7.799c0-.063-.05-.126-.124-.098-.134.05-.23.197-.319.297-.173.196-.338.404-.504.608a7.39 7.39 0 0 0-.426.6c-.135.208-.377.516-.38.781 0 .135.207.135.207 0 .004-.25.296-.588.435-.796.11-.17.226-.331.353-.489.12-.146.238-.292.357-.435.078-.092.216-.323.331-.366a.105.105 0 0 0 .07-.102"/><path fill="#ce6067" stroke="#000" stroke-linecap="round" stroke-linejoin="round" stroke-width=".213" d="M-33.932 184.914c.08-.764.172-1.528.278-2.291l-.278 2.29" transform="matrix(.99464 0 0 .99568 41.972 -38.44)"/><path fill="#040606" stroke="#000" stroke-linecap="round" stroke-linejoin="round" stroke-width=".213" d="M-19.979 92.922c-.058-.232.294-.328.352-.1.147.568.414 1.299 1.044 1.473.266.073.456.023.746-.05.808-.21.87-.963.897-1.694.026-.761-.02-1.527-.039-2.288a9.526 9.526 0 0 0-.077-1.148c-.008-.07-.02-.136-.031-.205a4.1 4.1 0 0 0-.178-.715c-.154-.44-.468-.975-.974-.96l-.217.016c-.572.035-.908.538-1.097 1.033-.082.216-.437.124-.352-.097.232-.611.66-1.241 1.372-1.299.054-.004.105-.004.162 0h.004a.814.814 0 0 1 .194-.015c.707.019 1.101.722 1.294 1.33.016.042.028.085.04.127.065.24.111.483.142.727.09.637.085 1.295.108 1.936.024.735.062 1.489-.038 2.22-.054.386-.159.792-.46 1.062l-.112.093c-.12.082-.26.143-.402.19-.19.061-.395.092-.588.12-1.024.127-1.573-.909-1.79-1.756" transform="matrix(.99464 0 0 .99568 41.972 -38.44)"/><path fill="#040606" stroke="#000" stroke-linecap="round" stroke-linejoin="round" stroke-width=".213" d="M-18.154 93.235c-.05-.03-.07-.092-.039-.143 0-.004.015-.03.043-.08.208-.422 1.07-2.405-.213-4.334l-.081-.12-.02-.058.012-.05.012-.016.023-.02a.1.1 0 0 1 .143.025l.05.073c1.57 2.28.224 4.662.213 4.685l-.008.008a.103.103 0 0 1-.135.03" transform="matrix(.99464 0 0 .99568 41.972 -38.44)"/><path fill="#040606" stroke="#000" stroke-linecap="round" stroke-linejoin="round" stroke-width=".213" d="M-17.957 93.471a.1.1 0 0 0 .023-.143 2.502 2.502 0 0 1-.085-.123 1.892 1.892 0 0 1-.131-.194c-.959-1.496-.777-2.845-.572-3.537.108-.363.247-.63.36-.796a.662.662 0 0 1 .139-.166l.03-.024a.103.103 0 0 0-.03-.204c-.07.007-.144.065-.217.15l-.012.016c-.12.147-.24.363-.328.576-.108.255-.31.831-.31 1.592 0 .797.217 1.794.99 2.834a.1.1 0 0 0 .143.02M-17.002 83.637c-.321-.104-.622-.22-.847-.483-.46-.541-.34-1.295-.116-1.914.081-.216.437-.123.356.101-.209.553-.363 1.33.205 1.732.243.17.653.29.99.317.394.035.719-.147 1-.414.523-.499.925-1.133 1.327-1.724.49-.723 1.062-1.446 1.325-2.288.109-.344.19-.781-.027-1.098-.228-.336-.703-.46-1.086-.41-1.26.166-2.258 1.543-2.919 2.482-.134.19-.452.007-.316-.186.587-.83 1.248-1.666 2.11-2.222.41-.267.9-.48 1.395-.449.546.035 1.122.364 1.269.913.146.537-.059 1.117-.283 1.6-.452.966-1.136 1.867-1.77 2.725-.348.472-.734 1.017-1.275 1.287-.43.217-.894.17-1.338.031" transform="matrix(.99464 0 0 .99568 41.972 -38.44)"/><path fill="#040606" stroke="#000" stroke-linecap="round" stroke-linejoin="round" stroke-width=".213" d="M-16.96 82.288c-.096-.696.441-1.45.808-1.99.414-.615.738-1.323 1.365-1.744.46-.313 1.132-.491 1.488.058.074.116-.104.22-.178.108a.57.57 0 0 0-.178-.181.52.52 0 0 0-.216-.078c-.402-.054-.9.294-1.156.55-.332.332-.549.807-.812 1.193-.251.375-.514.746-.7 1.156-.127.283-.281.665-.2.978.042.17.15.283.286.34a.599.599 0 0 0 .286.055.704.704 0 0 0 .263-.062c.123-.054.228.124.108.178-.495.22-1.083.02-1.163-.56" transform="matrix(.99464 0 0 .99568 41.972 -38.44)"/><path fill="#040606" stroke="#000" stroke-linecap="round" stroke-linejoin="round" stroke-width=".213" d="M-16.461 82.686l.008-.008c.7-.46 1.256-1.07 1.708-1.774.464-.73 1.02-1.519.874-2.435v-.008c-.015-.127.178-.174.2-.046.009.042.013.08.016.123.093.89-.386 1.651-.85 2.378-.449.707-.982 1.333-1.662 1.817a3.225 3.225 0 0 1-.19.13c-.112.078-.216-.103-.104-.177M-10.91 76.045c-.325-.135-.642-.29-.846-.591-.395-.584-.175-1.315.12-1.887.103-.212.42-.027.312.182-.263.518-.494 1.287.062 1.709.263.193.638.351.96.39.416.05.772-.182 1.077-.44.576-.484 1.063-1.083 1.55-1.647.503-.584 1.071-1.168 1.354-1.902.111-.294.193-.665.015-.955-.197-.32-.642-.483-1.009-.468-1.225.047-2.312 1.225-3.065 2.06-.159.174-.418-.084-.26-.258.851-.94 2.231-2.397 3.67-2.142.506.089 1.016.456 1.112.982.093.51-.143 1.036-.398 1.465-.514.862-1.256 1.612-1.929 2.35-.417.453-.881.982-1.465 1.222-.425.17-.85.104-1.26-.07" transform="matrix(.99464 0 0 .99568 41.972 -38.44)"/><path fill="#040606" stroke="#000" stroke-linecap="round" stroke-linejoin="round" stroke-width=".213" d="M-10.798 74.638c.043-.653.568-1.245.974-1.716.472-.545.878-1.21 1.535-1.547.471-.24 1.152-.355 1.434.22.058.12-.124.225-.182.105a.547.547 0 0 0-.355-.301c-.402-.109-.963.205-1.245.452-.31.274-.541.65-.812.959-.305.352-.622.7-.858 1.101-.14.236-.29.51-.286.789 0 .205.1.356.244.44.08.05.177.078.282.082a.711.711 0 0 0 .25-.027c.129-.039.186.162.055.2-.54.16-1.075-.166-1.036-.757" transform="matrix(.99464 0 0 .99568 41.972 -38.44)"/><path fill="#040606" stroke="#000" stroke-linecap="round" stroke-linejoin="round" stroke-width=".213" d="M-10.38 75.156l.03-.015c.739-.375 1.342-.901 1.868-1.539.521-.642 1.12-1.318 1.09-2.203v-.012c-.004-.135.204-.135.209 0 0 .043.003.081 0 .12-.016.804-.507 1.457-1.002 2.06-.545.665-1.132 1.245-1.882 1.655-.07.042-.14.077-.21.112-.119.062-.223-.12-.104-.178M-4.536 67.023c-.549-.433-.073-1.318.217-1.751.328-.468.68-.917 1.067-1.342.502-.556 1.079-1.144 1.766-1.46.433-.202.785-.194 1.156.073.042.03.027.015.027.007l.039.028c.023.019.062.046.096.096.144.205.109.464.043.692-.182.607-.626 1.148-1.036 1.616-.514.587-1.009 1.195-1.57 1.735-.258.252-.58.569-.958.607-.282.028-.63-.127-.847-.301zm2.915-.959c.592-.672 1.257-1.337 1.662-2.15.182-.355.336-.791.217-1.19a.84.84 0 0 0-.364-.479l-.035-.02h-.003l-.008-.01c-.136-.14-.352-.217-.537-.244-.901-.144-1.755.634-2.35 1.21a12.445 12.445 0 0 0-1.562 1.87l-.031.04c-.368.54-.743 1.352-.348 1.982.174.27.499.43.792.538 1.075.386 1.964-.863 2.567-1.547" transform="matrix(.99464 0 0 .99568 41.972 -38.44)"/><path fill="#040606" stroke="#000" stroke-linecap="round" stroke-linejoin="round" stroke-width=".213" d="M-3.237 65.175c.17-.243.356-.456.565-.66.37-.372.746-.759 1.167-1.076.058-.042.14-.123.213-.139.247-.054.294.263.204.445-.166.348-.464.68-.71.97-.256.302-.53.584-.824.843-.108.1-.955.866-1.106.777-.185-.313.325-.92.491-1.16zm.31.908c.467-.363.896-.769 1.275-1.22.186-.214.36-.442.518-.674.112-.158.263-.336.325-.521.093-.26-.132-.577-.418-.592-.232-.012-.475.248-.637.387-.314.27-.611.56-.905.85-.29.29-.537.588-.766.932-.189.286-.595.835-.375 1.194l.005.012.003.004.02.023c.274.259.757-.244.954-.395M3.32 58.263c-.14-.05-.21-.073-.29-.123-.5-.337-.383-1.017-.202-1.5.367-.905.881-1.971 1.694-2.555.231-.17.517-.283.807-.21.109.028.224.105.244.117.09.043.105.027.2.112.573.51-.088 1.64-.355 2.119-.301.533-.584 1.093-.947 1.592-.166.236-.382.51-.692.537-.155.012-.313-.038-.46-.089zm1.951-1.04c.456-.792 1.496-2.195.924-3.173a.945.945 0 0 0-.402-.36l-.042-.023-.047-.027a1.179 1.179 0 0 0-.637-.15c-.739.046-1.292.741-1.678 1.306a9.192 9.192 0 0 0-.913 1.747l-.011.035c-.197.534-.27 1.206.131 1.666.202.228.499.344.785.422.978.258 1.48-.727 1.89-1.442" transform="matrix(.99464 0 0 .99568 41.972 -38.44)"/><path fill="#040606" stroke="#000" stroke-linecap="round" stroke-linejoin="round" stroke-width=".213" d="M4.108 55.86c.24-.295.483-.6.765-.855.043-.04.105-.12.163-.131.25-.043.24.258.189.405-.081.24-.24.48-.379.688a4.99 4.99 0 0 1-.541.704c-.081.085-.626.68-.773.634-.263-.321.375-1.199.576-1.446zm.02 1.278c.331-.3.622-.641.87-1.016.177-.27.475-.673.51-1.009.022-.22-.213-.444-.434-.452-.19-.004-.355.197-.475.32-.228.232-.433.48-.638.731-.286.356-.974 1.299-.572 1.751l.023.016.031.015c.228.132.545-.228.684-.356M7.065 49.941c-.387-.306-.232-1.002-.12-1.392.26-.82.587-1.766 1.19-2.404.256-.27.496-.36.793-.17 0 0 .073.046.101.08.131.163.135.407.123.604-.034.522-.255 1.02-.456 1.492-.209.48-.402.97-.653 1.426-.1.186-.247.487-.483.526-.151.024-.375-.07-.495-.162zm1.604-.82c.298-.66.646-1.341.792-2.056.07-.34.11-.735-.042-1.06a.79.79 0 0 0-.313-.351l-.016-.008-.01-.008-.009-.003-.015-.008-.008-.008a.731.731 0 0 0-.43-.132c-.52.008-.9.519-1.163.963a9.767 9.767 0 0 0-.831 1.917l-.03.085c-.225.766-.213 1.717.668 1.972.796.236 1.152-.735 1.407-1.303" transform="matrix(.99464 0 0 .99568 41.972 -38.44)"/><path fill="#040606" stroke="#000" stroke-linecap="round" stroke-linejoin="round" stroke-width=".213" d="M7.884 47.695c.144-.247.294-.499.464-.73.082-.109.197-.229.194.015-.008.22-.197.525-.294.715-.054.116-.63.993-.719 1.117-.1-.313.205-.858.355-1.117zm.433.317c.132-.236.781-1.283.194-1.396-.302-.057-.596.623-.715.824-.232.379-.611 1.005-.456 1.465v.008l.015.038.015.023.02.02.019.008c.294.17.82-.832.908-.99M8.36 53.033c-.174-.421.011-.997.143-1.4.255-.76.533-1.572 1.005-2.23.038-.05.182-.27.271-.259.038.004.034.035.061.05l.031.059c.031.065.05.135.062.228.078.742-.309 1.53-.583 2.188-.167.41-.33.827-.534 1.217-.035.066-.12.248-.197.325l-.062.03c-.07 0-.143-.11-.177-.173zm.986-.413c.413-.936 1.016-2.042.954-3.097a1.38 1.38 0 0 0-.073-.382.466.466 0 0 0-.07-.147.472.472 0 0 0-.177-.17.26.26 0 0 0-.097-.031l-.058-.012c-.499-.05-.839.746-1.013 1.098a14.937 14.937 0 0 0-.665 1.654l-.007.031c-.163.514-.383 1.346.011 1.806l.081.085.081.065a.474.474 0 0 0 .097.05.343.343 0 0 0 .097.031c.429.066.7-.668.839-.981" transform="matrix(.99464 0 0 .99568 41.972 -38.44)"/><path fill="#040606" stroke="#000" stroke-linecap="round" stroke-linejoin="round" stroke-width=".213" d="M8.704 52.299c-.159-.337.158-.978.297-1.287.128-.279.271-.79.534-.967.112-.073.216.104.105.182-.082.054-.144.243-.19.329-.073.146-.143.293-.213.44-.069.155-.135.306-.185.468-.058.166-.24.572-.166.727.058.123-.124.228-.182.108M4.796 60.652l-.066-.015a.383.383 0 0 1-.174-.12.514.514 0 0 1-.089-.124l-.023-.038c-.108-.21.209-.39.317-.182.02.039.047.112.089.135.12-.027.251-.224.321-.305.507-.591.978-1.252 1.388-1.91.224-.363.487-.788.517-1.221.005-.058 0-.074 0-.093l-.003-.008.003.004-.019-.07c-.08-.026-.162.047-.266.132-.182.147-.441-.108-.26-.259a1.31 1.31 0 0 1 .418-.251.358.358 0 0 1 .228.007l.062.031.085.074a.875.875 0 0 1 .074.166v-.011l.003.019.027.073c.066.468-.185.947-.406 1.342-.305.537-.684 1.032-1.047 1.526-.217.298-.433.611-.696.874-.162.163-.329.244-.483.224M-1.343 68.557c-.139-.003-.255-.08-.325-.266a1.025 1.025 0 0 1-.057-.248c-.035-.232.32-.328.351-.096.012.077.055.27.066.274.074.023.31-.185.375-.243C-.225 67.382.42 66.656 1 65.944c.34-.42.715-.9.862-1.434.027-.089.027-.089.027-.162.004-.228-.128-.07-.286.035-.197.131-.379-.186-.182-.317.194-.128.414-.197.58-.159a.25.25 0 0 1 .093.039.276.276 0 0 1 .131.17.42.42 0 0 1 .027.147.826.826 0 0 1 .004.096c-.016.31-.162.604-.313.866-.456.812-1.121 1.497-1.759 2.169-.247.263-1.036 1.175-1.527 1.163" transform="matrix(.99464 0 0 .99568 41.972 -38.44)"/><path fill="#040606" stroke="#000" stroke-linecap="round" stroke-linejoin="round" stroke-width=".213" d="M-.813 67.236c.027-.252.263-.503.418-.696.165-.209.336-.414.525-.603.186-.19.371-.375.565-.557.092-.089.212-.232.344-.267.13-.035.185.166.057.201-.127.031-.278.236-.37.325-.136.131-.271.263-.403.398a4.996 4.996 0 0 0-.36.395c-.173.204-.536.533-.567.804-.016.135-.225.135-.21 0M-9.368 77.526a.798.798 0 0 1-.123-.33c-.039-.23.313-.328.352-.096a.36.36 0 0 0 .034.124c.082.166.247.016.437-.14.634-.502 1.179-1.159 1.697-1.773.448-.53.897-1.121 1.137-1.778l.023-.066c.054-.147.104-.313.089-.464-.023-.224.309-.232.36-.035l.007.035c.027.27-.1.58-.205.82-.363.85-.982 1.561-1.593 2.245-.232.263-1.731 2.096-2.215 1.458M-15.394 85.62c-.143-.05-.232-.19-.294-.348a1.98 1.98 0 0 1-.089-.344c-.042-.232.31-.328.352-.096.02.1.05.398.143.444.05.027.263-.135.337-.197.637-.53 1.17-1.206 1.723-1.82.611-.673 1.203-1.38 1.593-2.208.14-.286.259-.603.267-.924v-.058l-.004-.07c-.039-.324-.213-.259-.476-.1-.2.12-.386-.197-.181-.317.154-.093.344-.174.521-.182a.42.42 0 0 1 .391.19l.034.062c.055.108.07.228.078.348l.004.038-.004.043c0 .398-.132.769-.298 1.128-.487 1.044-1.295 1.895-2.052 2.741-.364.406-.727.816-1.117 1.187-.186.174-.394.387-.638.472a.448.448 0 0 1-.29.011M4.753 59.586c.004-.267.248-.577.383-.785.135-.209.275-.41.429-.603.167-.205.333-.414.507-.611.089-.1.185-.248.32-.298.124-.046.178.155.054.201-.115.043-.254.275-.332.368-.12.143-.24.29-.36.436a6.378 6.378 0 0 0-.355.491c-.14.209-.433.55-.437.8 0 .136-.209.136-.209 0" transform="matrix(.99464 0 0 .99568 41.972 -38.44)"/><path fill="#040606" stroke="#000" stroke-linecap="round" stroke-linejoin="round" stroke-width=".213" d="M-8.552 76.165c.031-.255.263-.506.417-.7.167-.208.337-.413.526-.603.186-.19.371-.375.565-.556.092-.09.216-.232.347-.267.128-.035.186.166.055.2-.128.032-.278.237-.372.326-.135.131-.27.263-.402.398a4.914 4.914 0 0 0-.359.394c-.174.205-.538.534-.569.808-.015.131-.223.131-.208 0M-15.004 84.414c.059-.514.53-1.051.82-1.46.263-.365.53-.716.82-1.056.293-.337.591-.677.896-1.005.127-.135.36-.472.565-.507.131-.023.185.178.054.201-.178.031-.464.445-.576.568-.255.275-.499.557-.746.84-.263.3-.507.614-.743.938-.15.214-.305.422-.448.642-.147.228-.402.565-.433.84-.016.135-.224.135-.209 0M-14.25 205.094c-.023-.073-.042-.147-.065-.22a75.796 75.796 0 0 1-.994-3.7 4.59 4.59 0 0 1-.054-.212l.406-.097.057.232c.29 1.195.62 2.408.975 3.614.023.09.05.175.077.263l-.402.12M-16.956 191.92c-.012-.089-.019-.178-.027-.266a63.19 63.19 0 0 1-.274-3.379c-.008-.085-.012-.166-.016-.251l.418-.02.011.205a66.19 66.19 0 0 0 .282 3.456c.004.07.012.14.02.21l-.414.045M-16.813 180.799l-.417-.027c.008-.12.015-.24.027-.36.1-1.442.255-2.883.464-4.29.011-.117.03-.228.046-.34l.414.061-.047.313a56.852 56.852 0 0 0-.475 4.48l-.012.163M-14.733 168.75l-.402-.116a5.2 5.2 0 0 1 .073-.244c.41-1.395.878-2.78 1.4-4.117.023-.07.05-.139.077-.208l.39.15c-.034.086-.065.17-.096.256a52.022 52.022 0 0 0-1.388 4.094c-.02.061-.035.123-.054.185M-10.284 157.775l-.375-.185c.062-.128.124-.255.19-.387.236-.486.483-.982.73-1.488.445-.904.905-1.836 1.365-2.787.042-.085.08-.17.124-.255l.375.181a1035.793 1035.793 0 0 1-1.488 3.046c-.287.58-.565 1.153-.844 1.713-.023.054-.05.108-.077.162M-5.344 147.365l-.382-.166c.035-.085.073-.166.104-.247a81.525 81.525 0 0 0 1.863-4.693l.093-.255.394.139-.08.232a83.932 83.932 0 0 1-1.907 4.793c-.027.066-.057.132-.085.197M-1.524 136.364l-.406-.1c.027-.11.05-.213.077-.321.375-1.593.669-3.17.862-4.693l.035-.259.414.05c-.008.081-.02.158-.031.24a45.696 45.696 0 0 1-.916 4.936l-.035.147M-.713 124.949c-.003-.1-.011-.201-.019-.302a24.995 24.995 0 0 0-1.06-5.902l.4-.124c.022.073.045.15.065.228a25.4 25.4 0 0 1 1.02 5.914l.012.163-.418.023M-4.316 113.267l-.154-.244c-.777-1.225-1.252-1.886-2.16-2.899-.04-.046-.082-.092-.125-.139l.31-.278c.046.054.096.104.14.154.923 1.029 1.406 1.705 2.202 2.965.047.07.093.143.14.22l-.353.22M-11.165 105.713l-.174-.154-.224-.197a86.33 86.33 0 0 1-1.914-1.72 9.208 9.208 0 0 1-.278-.267l-.244-.244.302-.29c.096.101.197.201.301.298.066.066.136.132.205.197.584.55 1.226 1.113 1.906 1.713l.228.205h.004l.166.146-.278.313M-16.836 97.708c-.031-.074-.062-.143-.092-.216-.418-1.029-.585-2.08-.674-2.935-.01-.088-.019-.173-.026-.255l.417-.038.012.104c.08.87.24 1.967.684 3.027.015.05.038.097.058.143l-.379.17M6.876 56.632a.213.213 0 0 1-.116-.185l.003-.035.02-.062a41.577 41.577 0 0 0 1.442-3.154.205.205 0 0 1 .155-.128.213.213 0 0 1 .12.012c.057.023.1.073.119.131a.224.224 0 0 1-.008.143l-.104.247c-.39.948-.808 1.856-1.268 2.764-.027.058-.054.116-.085.174a.207.207 0 0 1-.278.093M1.947 64.317a.21.21 0 0 1-.081-.162c0-.047.015-.09.042-.128l.093-.12a52.962 52.962 0 0 0 2.466-3.514l.035-.054c.062-.1.19-.127.29-.066l.047.04c.058.069.065.17.015.25l-.058.09a52.294 52.294 0 0 1-2.544 3.61l-.012.015a.206.206 0 0 1-.293.039M-6.082 73.46a.201.201 0 0 1-.07-.156c0-.05.02-.1.055-.139.923-1.04 1.812-2.01 2.84-3.135.488-.53 1.01-1.098 1.59-1.74l.011-.01a.212.212 0 0 1 .298-.013.207.207 0 0 1 .015.29l-.004.004c-.583.642-1.11 1.218-1.6 1.751-.87.952-1.639 1.79-2.416 2.656-.139.159-.278.317-.422.476l-.026.023a.21.21 0 0 1-.27-.008M-11.505 79.733a.22.22 0 0 1-.074-.163c0-.046.016-.092.046-.13l.031-.04c.724-.873 1.145-1.372 2.154-2.535a.208.208 0 0 1 .294-.02.209.209 0 0 1 .023.294l-.074.085c-.092.108-.178.205-.263.302-.746.866-1.148 1.341-1.743 2.064-.03.039-.066.077-.097.116a.213.213 0 0 1-.297.027" transform="matrix(.99464 0 0 .99568 41.972 -38.44)"/><path fill="#040606" stroke="#000" stroke-linecap="round" stroke-linejoin="round" stroke-width=".213" d="M-10.898 215.369h-20.29l-.051-.135a7.064 7.064 0 0 1-.1-.282c-.426-1.226-2.108-6.421-2.838-14.176a80.914 80.914 0 0 1-.352-7.518v-.182c.004-.78.016-1.562.043-2.342.038-1.338.112-2.68.22-4.02.015-.205.035-.407.05-.612.035-.394.074-.784.113-1.178.069-.7.15-1.4.243-2.1a85.376 85.376 0 0 1 4.175-17.55c4.294-12.257 9.022-19.312 12.47-24.461 3.626-5.408 6.02-8.98 5.74-14.747-.456-7.02-4.043-10.422-7.839-14.028-3.823-3.626-7.777-7.38-8.292-15.092-.026-.197-.436-3.56.813-8.241.75-2.814 1.944-5.551 3.548-8.133 2.002-3.228 4.654-6.224 7.882-8.907.066-.057 6.854-5.933 11.233-10.982C.226 55.662 4.417 49.67 5.615 46.755c.267-.653.519-1.349.785-2.087.92-2.547 1.87-5.18 3.537-5.914.441-.198.797-.198 1.056.004.672.521.397 2.195.135 3.815a18.54 18.54 0 0 0-.194 1.353c.016.22.116 2.16-.707 5.215l-.012.046-.305-.085-.1-.027c.027-.097.05-.19.073-.282.217-.828.36-1.574.456-2.212l.008-.042c.038-.278.07-.537.093-.773l.008-.066c.115-1.113.07-1.747.07-1.759l-.005-.015.004-.02c.03-.374.108-.838.19-1.34v-.005l.007-.054c.031-.2.07-.417.1-.641.175-1.137.321-2.47-.077-2.776-.127-.1-.34-.085-.63.043-1.503.665-2.423 3.212-3.312 5.678a55.205 55.205 0 0 1-.793 2.103c-1.233 3-5.362 8.906-9.819 14.044-4.398 5.071-11.206 10.967-11.275 11.025-7.233 6.01-10.136 12.47-11.3 16.83-1.256 4.72-.804 8.048-.8 8.083v.016c.503 7.553 4.4 11.249 8.164 14.824 1.844 1.751 3.754 3.56 5.215 5.79 1.647 2.506 2.547 5.289 2.756 8.513.286 5.91-2.138 9.532-5.81 15.006-3.436 5.133-8.145 12.161-12.424 24.369-5.083 14.43-5.238 27.163-4.468 35.308.757 8.06 2.543 13.333 2.86 14.23h20c.074 0 .113-.05.128-.07.012-.023.043-.077.012-.147-.113-.26-.22-.522-.329-.785-.03-.073-.062-.143-.093-.216l.387-.159c.035.078.066.159.1.24.105.251.213.507.322.757a.577.577 0 0 1-.526.797" paint-order="markers fill stroke" transform="matrix(.99464 0 0 .99568 41.972 -38.44)"/><path fill="#040606" stroke="#000" stroke-linecap="round" stroke-linejoin="round" stroke-width=".213" d="M-16.948 89.188a.186.186 0 0 1-.108-.073.222.222 0 0 1-.043-.128l.004-.054.008-.023a19.209 19.209 0 0 1 1.388-3.618l.011-.02a.209.209 0 0 1 .271-.073c.104.05.143.178.092.278-.023.047-.046.097-.07.143a18.509 18.509 0 0 0-1.294 3.421l-.008.016a.205.205 0 0 1-.251.131M1.922 64.159c.139-.171.248-.308.335-.419a46.472 46.472 0 0 0 2.405-3.381l.175.113a46.38 46.38 0 0 1-2.416 3.397 26.5 26.5 0 0 1-.336.421l-.163-.131M6.903 56.427c.52-1.043.996-2.117 1.418-3.191l.194.076A39.558 39.558 0 0 1 7.09 56.52l-.187-.093M-14.346 103.553c-.263.046-.375-.356-.113-.406.607-.108 1.044-.363.99-1.04-.035-.417-.193-.831-.352-1.221a15.455 15.455 0 0 0-.846-1.744c-.352-.622-.928-1.38-1.732-1.341a1.288 1.288 0 0 0-.506.131c-.058.031-.109.066-.163.097l-.027.02-.012.007c-.204.15-.486-.135-.286-.306a1.48 1.48 0 0 1 .465-.258c.127-.05.266-.082.401-.097h.012c.564-.066 1.086.193 1.488.576.348.332.615.746.835 1.17.27.519.533 1.049.754 1.586.243.588.545 1.35.32 1.99-.057.174-.158.31-.278.422a1.343 1.343 0 0 1-.359.236c-.186.085-.39.143-.591.178" transform="matrix(.99464 0 0 .99568 41.972 -38.44)"/><path fill="#040606" stroke="#000" stroke-linecap="round" stroke-linejoin="round" stroke-width=".213" d="M-14.478 101.516c-.046.007-.089-.012-.108-.05l-.016-.035c-.004-.012-.243-1.249-1.012-2.312l-.016-.031-.004-.031.043-.085a.105.105 0 0 1 .147.023l.011.02a6.619 6.619 0 0 1 1.033 2.354l.003.023a.106.106 0 0 1-.081.124" transform="matrix(.99464 0 0 .99568 41.972 -38.44)"/><path fill="#040606" stroke="#000" stroke-linecap="round" stroke-linejoin="round" stroke-width=".213" d="M-14.161 102.126a7.788 7.788 0 0 1-.425-.66 11.854 11.854 0 0 1-1.202-2.934l-.004-.024c0-.046.034-.089.081-.1a.11.11 0 0 1 .127.077c.005.004.05.205.151.53.174.552.507 1.46 1.033 2.354.123.216.262.429.41.634a.105.105 0 0 1-.024.147.106.106 0 0 1-.147-.024M-6.967 109.846c.518-.329.804-.73.498-1.322-.451-.886-1.372-1.577-2.11-2.207-.484-.41-1.295-1.063-1.995-.847a.734.734 0 0 0-.359.236c-.015.02-.132.232-.089.123-.1.244-.506.136-.402-.111a1.172 1.172 0 0 1 .367-.464h.004a.735.735 0 0 1 .162-.105c.48-.247 1.033-.112 1.489.108.444.213.846.522 1.213.847.453.394.909.784 1.323 1.218.425.444.95 1.024.958 1.681.004.348-.166.63-.398.858-.1.097-.213.182-.325.263l-.124.082c-.228.146-.436-.217-.212-.36" transform="matrix(.99464 0 0 .99568 41.972 -38.44)"/><path fill="#040606" stroke="#000" stroke-linecap="round" stroke-linejoin="round" stroke-width=".213" d="M-7.733 108.357l-.034-.034c-.008-.008-.7-1.063-1.813-1.76l-.039-.038-.012-.05.016-.054c.031-.05.096-.062.147-.035l.008.004c1.062.67 1.732 1.624 1.847 1.794l.02.027a.105.105 0 0 1-.14.147" transform="matrix(.99464 0 0 .99568 41.972 -38.44)"/><path fill="#040606" stroke="#000" stroke-linecap="round" stroke-linejoin="round" stroke-width=".213" d="M-7.099 108.802a7.378 7.378 0 0 1-.634-.445 11.767 11.767 0 0 1-1.886-1.832c-.22-.262-.34-.432-.344-.436l-.02-.062.047-.085c.047-.031.112-.024.143.027.004.004.12.166.325.418l.008.004a11.63 11.63 0 0 0 1.847 1.793c.197.155.41.302.627.44a.106.106 0 0 1 .03.144.103.103 0 0 1-.143.035M-1.984 119.046c-.263.043-.375-.36-.109-.402.569-.093 1.029-.317 1.013-.955-.027-.997-.634-2.037-1.067-2.903-.286-.58-.776-1.52-1.523-1.593a.834.834 0 0 0-.557.175c-.193.185-.49-.109-.297-.294l.054-.05c.109-.09.232-.155.367-.198.1-.03.205-.05.306-.054.54-.023 1.005.333 1.333.727.329.394.573.847.793 1.31.243.51.49 1.021.692 1.554.216.573.467 1.307.22 1.91-.112.274-.32.456-.568.576-.12.062-.255.108-.39.143-.09.023-.179.038-.267.054" transform="matrix(.99464 0 0 .99568 41.972 -38.44)"/><path fill="#040606" stroke="#000" stroke-linecap="round" stroke-linejoin="round" stroke-width=".213" d="M-2.085 117.009a.097.097 0 0 1-.104-.05l-.016-.035c0-.012-.22-1.252-.97-2.331l-.015-.027-.004-.031c0-.035.015-.066.042-.085a.105.105 0 0 1 .147.023l.008.015c.734 1.06.966 2.23.997 2.385l.004.016a.108.108 0 0 1-.089.12" transform="matrix(.99464 0 0 .99568 41.972 -38.44)"/><path fill="#040606" stroke="#000" stroke-linecap="round" stroke-linejoin="round" stroke-width=".213" d="M-1.776 117.627c-.15-.216-.29-.44-.413-.668a12.167 12.167 0 0 1-1.001-2.393c-.1-.34-.147-.553-.151-.56v-.024c0-.046.03-.093.081-.1a.103.103 0 0 1 .124.077c.004.008.046.209.14.53.169.556.486 1.48.996 2.385.124.212.255.429.398.634a.11.11 0 0 1-.026.147.11.11 0 0 1-.148-.028M-.573 131.28a2.177 2.177 0 0 1-.418-.03 2.858 2.858 0 0 1-.263-.058c-.263-.066-.15-.468.112-.402.472.123.967.139 1.222-.344.313-.596.286-1.384.278-2.034-.007-.854.031-1.809-.297-2.613-.19-.464-.627-.873-1.102-.696-.251.093-.36-.309-.112-.405.131-.047.274-.062.421-.05.116.007.232.034.337.073l.088.042c.445.201.696.669.84 1.121.142.452.192.94.212 1.415.023.588.05 1.175.023 1.763-.03.63-.077 1.442-.56 1.913-.22.217-.496.298-.781.306" transform="matrix(.99464 0 0 .99568 41.972 -38.44)"/><path fill="#040606" stroke="#000" stroke-linecap="round" stroke-linejoin="round" stroke-width=".213" d="M-.508 129.29a.107.107 0 0 1-.073-.066l-.004-.038v-.024c.004-.011.297-1.237.039-2.524l-.004-.011.004-.035.004-.008a.117.117 0 0 1 .077-.07.106.106 0 0 1 .123.085l.004.015c.248 1.234.008 2.382-.035 2.571l-.007.027c-.015.058-.07.093-.128.078" transform="matrix(.99464 0 0 .99568 41.972 -38.44)"/><path fill="#040606" stroke="#000" stroke-linecap="round" stroke-linejoin="round" stroke-width=".213" d="M-.349 130.06c-.055.01-.112-.024-.12-.082a7.468 7.468 0 0 1-.112-.754l-.004-.038a10.172 10.172 0 0 1-.054-1.063c0-.596.046-1.122.089-1.496l.004-.035.004-.008c.042-.337.08-.545.08-.55a.11.11 0 0 1 .124-.084c.059.012.093.07.082.123 0 .004-.043.21-.082.542a11.59 11.59 0 0 0-.035 2.57c.024.248.059.503.109.754a.102.102 0 0 1-.085.12M-3.353 142.375a1.857 1.857 0 0 1-.406-.116c-.108-.043-.208-.093-.309-.143-.24-.128-.027-.487.209-.363.437.232.908.359 1.272-.054.46-.526.618-1.338.77-1.999.184-.816.447-1.728.293-2.575-.085-.475-.41-.939-.905-.877-.267.03-.263-.387 0-.418.19-.023.398.028.576.113a1.12 1.12 0 0 1 .363.274c.279.31.387.742.414 1.152.031.46-.031.928-.116 1.38a21.698 21.698 0 0 1-.402 1.77c-.174.6-.417 1.38-.99 1.725-.243.146-.51.173-.769.13" transform="matrix(.99464 0 0 .99568 41.972 -38.44)"/><path fill="#040606" stroke="#000" stroke-linecap="round" stroke-linejoin="round" stroke-width=".213" d="M-2.889 140.442a.12.12 0 0 1-.058-.085l.004-.023.008-.031c.007-.012.58-1.137.633-2.447.004-.058.05-.1.109-.1.058.004.104.05.1.108v.02a6.602 6.602 0 0 1-.645 2.492l-.004.004-.008.02a.103.103 0 0 1-.139.042" transform="matrix(.99464 0 0 .99568 41.972 -38.44)"/><path fill="#040606" stroke="#000" stroke-linecap="round" stroke-linejoin="round" stroke-width=".213" d="M-2.916 141.23a.106.106 0 0 1-.1-.104v-.007c.011-.259.034-.51.069-.762l.004-.023c.224-1.65.858-3.03.866-3.046.027-.05.089-.073.14-.05.053.027.076.089.05.139a11.735 11.735 0 0 0-.85 3l-.005.004c-.03.243-.054.495-.066.75a.107.107 0 0 1-.108.1M-8.01 153.137a2.387 2.387 0 0 1-.364-.209l-.058-.043c-.217-.158-.008-.521.213-.363.398.294.858.514 1.287.151.53-.453.808-1.241 1.047-1.867.302-.789.688-1.647.665-2.505-.011-.336-.108-.7-.405-.889a.826.826 0 0 0-.256-.1c-.077-.02-.004-.008-.077-.012-.27-.007-.27-.426 0-.418.112.004.228.027.336.07.135.05.26.127.363.216l.008.008c.371.329.468.85.445 1.326-.05 1.036-.514 2.091-.924 3.03-.263.596-.61 1.37-1.24 1.659-.357.166-.716.104-1.04-.054" transform="matrix(.99464 0 0 .99568 41.972 -38.44)"/><path fill="#040606" stroke="#000" stroke-linecap="round" stroke-linejoin="round" stroke-width=".213" d="M-7.049 151.382a.097.097 0 0 1-.045-.085l.003-.023.004-.012.016-.023c.003-.012.734-1.04.974-2.331l.015-.031c.02-.039.062-.058.108-.05.058.007.093.062.085.12l-.003.019c-.24 1.244-.894 2.223-.998 2.373l-.015.02a.1.1 0 0 1-.144.023" transform="matrix(.99464 0 0 .99568 41.972 -38.44)"/><path fill="#040606" stroke="#000" stroke-linecap="round" stroke-linejoin="round" stroke-width=".213" d="M-7.191 152.159a.108.108 0 0 1-.085-.104l.004-.02c.05-.259.112-.514.181-.761l.004-.012c.29-.998.719-1.87 1.005-2.385.166-.31.286-.491.29-.499.035-.046.097-.062.147-.027a.105.105 0 0 1 .03.143 11.891 11.891 0 0 0-1.276 2.845c-.069.24-.13.483-.177.735a.106.106 0 0 1-.123.085M-13.291 164.47a1.928 1.928 0 0 1-.499-.29c-.209-.162 0-.521.213-.359.421.325.862.487 1.271.058.573-.595.84-1.523 1.095-2.288.324-.986.726-2.033.734-3.085 0-.383-.05-.866-.395-1.101a.522.522 0 0 0-.343-.101c-.271.019-.267-.398 0-.418.255-.02.533.109.715.283l.03.034c.12.12.206.26.263.41.148.356.163.773.136 1.14-.039.569-.174 1.133-.34 1.678-.201.669-.406 1.338-.654 1.99-.259.685-.58 1.586-1.236 1.996-.325.2-.673.181-.99.054" transform="matrix(.99464 0 0 .99568 41.972 -38.44)"/><path fill="#040606" stroke="#000" stroke-linecap="round" stroke-linejoin="round" stroke-width=".213" d="M-12.363 162.287a.107.107 0 0 1-.05-.09l.007-.034.008-.02c.008-.01.765-1.314 1.024-2.88l.012-.03v-.004c.02-.04.062-.058.108-.05.058.007.093.061.085.12l-.004.026c-.251 1.48-.935 2.729-1.032 2.903l-.004.004-.012.016a.102.102 0 0 1-.143.039" transform="matrix(.99464 0 0 .99568 41.972 -38.44)"/><path fill="#040606" stroke="#000" stroke-linecap="round" stroke-linejoin="round" stroke-width=".213" d="M-12.518 163.218a.107.107 0 0 1-.089-.104l.004-.016c.05-.305.116-.606.19-.9l.007-.035a17.41 17.41 0 0 1 1.044-2.93v-.004c.174-.38.294-.603.297-.611a.107.107 0 0 1 .143-.043c.05.027.07.093.043.143a8.752 8.752 0 0 0-.294.607 16.708 16.708 0 0 0-1.032 2.903l-.004.004c-.073.294-.135.596-.19.901a.11.11 0 0 1-.12.085M-16.74 176.121a2.224 2.224 0 0 1-.587-.27c-.228-.143-.015-.506.213-.363.452.29.9.394 1.264-.074.49-.63.676-1.534.858-2.292.247-1.029.557-2.126.48-3.193-.028-.38-.12-.862-.48-1.07a.858.858 0 0 0-.24-.082l-.116.004.004-.004c-.247.012-.344-.363-.085-.406a.895.895 0 0 1 .368.02.979.979 0 0 1 .382.174l.012.007c.456.347.568.99.58 1.53.015.546-.066 1.094-.17 1.632a30.316 30.316 0 0 1-.488 2.114c-.197.712-.444 1.655-1.074 2.119a.942.942 0 0 1-.507.189 1.16 1.16 0 0 1-.413-.035" transform="matrix(.99464 0 0 .99568 41.972 -38.44)"/><path fill="#040606" stroke="#000" stroke-linecap="round" stroke-linejoin="round" stroke-width=".213" d="M-16.055 173.845a.104.104 0 0 1-.062-.093l.012-.046c.003-.012.645-1.377.765-2.958a.105.105 0 0 1 .209.016v.011c-.12 1.516-.7 2.834-.777 3l-.004.016-.004.004c-.027.054-.089.077-.14.05" transform="matrix(.99464 0 0 .99568 41.972 -38.44)"/><path fill="#040606" stroke="#000" stroke-linecap="round" stroke-linejoin="round" stroke-width=".213" d="M-16.133 174.784a.105.105 0 0 1-.096-.104v-.008c.19-2.358 1.133-4.573 1.14-4.596a.108.108 0 0 1 .14-.055c.05.024.077.086.054.14a16.911 16.911 0 0 0-1.013 3.614l-.004.015c-.046.294-.085.596-.108.901a.102.102 0 0 1-.113.093M-15.31 201.174a1.818 1.818 0 0 1-.517-.05c-.263-.058-.15-.46.112-.402.588.136.95-.054 1.075-.66.185-.944-.027-2.007-.186-2.939-.22-1.31-.41-2.705-.94-3.935-.173-.41-.463-1.032-.946-1.133a.41.41 0 0 0-.26.024l-.08.046c-.213.112-.476-.162-.271-.32a.75.75 0 0 1 .34-.151.823.823 0 0 1 .421.011l.05.012c.646.212.99.978 1.215 1.55.266.692.432 1.418.568 2.145.154.835.325 1.666.437 2.509.116.839.309 1.948-.097 2.744a.94.94 0 0 1-.51.472c-.128.05-.263.077-.41.077" transform="matrix(.99464 0 0 .99568 41.972 -38.44)"/><path fill="#040606" stroke="#000" stroke-linecap="round" stroke-linejoin="round" stroke-width=".213" d="M-15.506 198.275a.108.108 0 0 1-.097-.062l-.007-.042c0-.016-.012-1.879-.592-3.753l-.004-.035c0-.043.027-.081.073-.097a.11.11 0 0 1 .132.07l.004.011c.56 1.82.591 3.626.595 3.792v.012a.104.104 0 0 1-.104.104" transform="matrix(.99464 0 0 .99568 41.972 -38.44)"/><path fill="#040606" stroke="#000" stroke-linecap="round" stroke-linejoin="round" stroke-width=".213" d="M-15.17 199.389c-.058.015-.116-.016-.131-.07a19.507 19.507 0 0 1-.302-1.106l-.007-.042a26.52 26.52 0 0 1-.592-3.753l-.004-.035c-.043-.51-.054-.824-.054-.831v-.004c0-.058.042-.105.1-.105.058-.004.105.043.109.101a26.259 26.259 0 0 0 .65 4.615c.084.364.185.735.297 1.098a.1.1 0 0 1-.066.132M-11.575 213.97c-.267-.02-.267-.437 0-.418.603.05.963-.166.994-.8.042-.982-.317-2.002-.611-2.918-.41-1.272-.797-2.625-1.504-3.77-.232-.37-.607-.912-1.067-.946a.408.408 0 0 0-.251.058c-.093.046-.039.01-.081.054-.186.193-.483-.101-.294-.294l.074-.062a.765.765 0 0 1 .39-.163.945.945 0 0 1 .313.008c.634.12 1.075.773 1.372 1.291.364.63.634 1.318.87 2.007.282.808.564 1.612.804 2.435.236.827.595 1.91.328 2.775a.98.98 0 0 1-.456.588c-.12.066-.251.112-.394.135-.154.031-.32.035-.487.02" transform="matrix(.99464 0 0 .99568 41.972 -38.44)"/><path fill="#040606" stroke="#000" stroke-linecap="round" stroke-linejoin="round" stroke-width=".213" d="M-11.691 211.105a.099.099 0 0 1-.104-.054l-.012-.035c-.004-.019-.282-1.859-1.12-3.633l-.013-.043a.11.11 0 0 1 .063-.097c.05-.023.111 0 .139.05.811 1.713 1.105 3.491 1.132 3.677l.004.015c.008.059-.03.108-.09.12" transform="matrix(.99464 0 0 .99568 41.972 -38.44)"/><path fill="#040606" stroke="#000" stroke-linecap="round" stroke-linejoin="round" stroke-width=".213" d="M-11.339 212.106a16.853 16.853 0 0 1-.456-1.055 25.965 25.965 0 0 1-1.145-3.71c-.111-.496-.166-.797-.17-.809l-.003-.02a.1.1 0 0 1 .088-.1c.054-.011.109.028.12.085 0 .012.054.31.167.797.193.839.56 2.238 1.132 3.676.14.348.294.7.456 1.047a.106.106 0 0 1-.05.14c-.054.023-.116.004-.139-.05M-17.257 188.275a2.102 2.102 0 0 1-.63-.116c-.256-.085-.147-.49.112-.406.498.166.958.166 1.202-.363.324-.707.286-1.612.278-2.374-.008-1.063.02-2.215-.305-3.239-.12-.379-.325-.843-.739-.97-.073-.024-.224-.027-.247-.024l-.123.035.03-.015c-.243.104-.456-.256-.212-.36a.983.983 0 0 1 .688-.03 1.15 1.15 0 0 1 .402.224c.36.301.549.796.661 1.233.143.541.197 1.105.22 1.662.027.711.058 1.426.039 2.138-.023.715-.035 1.673-.533 2.25a.981.981 0 0 1-.43.29 1.24 1.24 0 0 1-.413.065" transform="matrix(.99464 0 0 .99568 41.972 -38.44)"/><path fill="#040606" stroke="#000" stroke-linecap="round" stroke-linejoin="round" stroke-width=".213" d="M-17.153 185.902a.108.108 0 0 1-.081-.105v-.02c.004-.014.286-1.491.015-3.057v-.007l.004-.039v-.008a.11.11 0 0 1 .081-.065c.059-.008.112.027.12.085l.004.027v.007c.255 1.504.016 2.923-.015 3.085v.004l-.004.012a.106.106 0 0 1-.124.08" transform="matrix(.99464 0 0 .99568 41.972 -38.44)"/><path fill="#040606" stroke="#000" stroke-linecap="round" stroke-linejoin="round" stroke-width=".213" d="M-16.994 186.83c-.054.01-.109-.028-.12-.086a12.19 12.19 0 0 1-.118-.94l-.002-.007v-.016a16.01 16.01 0 0 1-.062-1.395c0-.664.039-1.248.077-1.673l.004-.039v-.008c.039-.401.074-.649.078-.656a.102.102 0 0 1 .12-.085.102.102 0 0 1 .084.12c0 .007-.038.254-.077.668v.007a16.95 16.95 0 0 0-.015 3.085v.004c.03.298.07.6.12.9a.106.106 0 0 1-.09.12M-19.34 101.627a3.886 3.886 0 0 1-.627-3.374c.035-.131.236-.077.201.054a3.683 3.683 0 0 0 .607 3.216c.077.108-.105.213-.182.104M-7.431 114.504a66.529 66.529 0 0 0-4.113-3.553c-.108-.08.042-.227.147-.146a66.513 66.513 0 0 1 4.113 3.552c.1.089-.046.24-.147.147M-22.29 104.94c1.056 2.2 2.867 3.877 4.643 5.497.1.09.248-.056.148-.147-1.764-1.61-3.562-3.27-4.61-5.456-.058-.121-.238-.015-.18.106M-8.47 128.404c.63 3.632-1.113 7.05-3.079 9.974-.075.112.105.216.18.105 2.002-2.976 3.741-6.442 3.1-10.135-.023-.132-.224-.076-.201.056M-8.825 138.028l-1.111 1.891c-.068.116.112.222.18.106l1.11-1.892c.069-.116-.111-.221-.18-.105M-19.74 156.76a5.93 5.93 0 0 0-.759 1.683c-.036.13.166.186.202.056.16-.584.406-1.126.738-1.633.074-.113-.107-.218-.18-.105M-14.169 156.643c.186-.483.414-.943.68-1.384.07-.116.252-.012.178.104-.255.426-.475.87-.657 1.334-.05.124-.251.07-.2-.054M-11.455 145.178l-.594 1.133c-.062.119.118.224.18.105l.595-1.133c.062-.118-.118-.224-.18-.105M-26.823 166.191a71.32 71.32 0 0 0-2.999 10.086c-.028.131.173.187.202.056a71.37 71.37 0 0 1 2.998-10.086c.048-.126-.154-.18-.201-.056M-25.163 171.912l-.452 2.106c-.028.132.174.188.202.056l.451-2.107c.028-.13-.173-.187-.201-.055M-21.159 166.323a4.32 4.32 0 0 0-.637 1.37c-.035.13.167.186.201.056.128-.478.333-.915.617-1.32.077-.11-.104-.215-.18-.106M-21.394 182.55c.027-1.635.12-3.267.279-4.894.011-.131.22-.135.209 0a60.763 60.763 0 0 0-.279 4.894c0 .131-.209.131-.209 0M-31.762 196.845a38.028 38.028 0 0 0 1.105 10.862c.033.13.235.075.202-.055a37.83 37.83 0 0 1-1.099-10.807c.006-.134-.203-.133-.208 0M-17.698 213.494a31.709 31.709 0 0 1-1.426-5.265c-.024-.131.177-.185.205-.054.32 1.794.796 3.553 1.422 5.265.046.128-.158.182-.2.054M-20.79 200.154a31.065 31.065 0 0 1-.248-3.537c0-.131.209-.131.209 0 .015 1.183.097 2.362.247 3.537.02.131-.19.131-.209 0M-25.033 193.76c.054.878.11 1.756.165 2.633.008.134.217.135.208 0l-.165-2.632c-.008-.134-.217-.135-.208 0M-23.058 83.777a16.19 16.19 0 0 0-.982 2.424c-.04.128.162.183.202.055.256-.817.576-1.608.96-2.374.06-.12-.12-.225-.18-.105M-25.892 94.93a4.778 4.778 0 0 0-.031 3.507c.047.124.25.07.202-.056a4.602 4.602 0 0 1 .031-3.395c.05-.125-.152-.18-.202-.056M-15.294 76.563a21.67 21.67 0 0 1 1.925-1.836c.101-.085.252.062.147.147a22.24 22.24 0 0 0-1.925 1.836c-.092.1-.24-.046-.147-.147M-15.131 72.915a30.41 30.41 0 0 0-2.824 2.744c-.09.1.057.248.147.148a30.41 30.41 0 0 1 2.825-2.744c.102-.087-.046-.235-.148-.148M-13.906 108.335c-.7-.31-1.302-.77-1.782-1.365-.08-.104.066-.251.15-.147a4.583 4.583 0 0 0 1.737 1.33c.123.054.019.235-.105.182M-15.471 102.045a3.682 3.682 0 0 1-.793-1.87c-.015-.136.194-.132.209 0 .081.633.328 1.22.73 1.72.082.104-.065.255-.146.15M-7.957 109.618a4.743 4.743 0 0 1-1.26-1.226c-.077-.111.105-.216.182-.104.32.456.719.843 1.187 1.152.112.074.004.251-.109.178M-2.278 123.298a9.065 9.065 0 0 0-.425-2.485c-.04-.132.162-.186.2-.058.264.827.406 1.677.434 2.543.003.135-.205.135-.209 0M-8.522 66.835a13.326 13.326 0 0 1-2.323 2.253c-.107.08-.003.261.105.18a13.522 13.522 0 0 0 2.366-2.285c.084-.104-.063-.253-.148-.148M9.842 40.114c-.547.103-.8.828-1.042 1.252-.066.116.114.222.18.105.133-.231.26-.465.396-.694.125-.208.269-.414.522-.461.132-.025.075-.226-.056-.202M3.353 52.413l-.802 1.205c-.075.112.107.217.18.105l.802-1.205c.075-.112-.106-.217-.18-.105M-1.418 59.03a15.606 15.606 0 0 1-1.925 2.297c-.096.095.052.243.148.148a15.896 15.896 0 0 0 1.958-2.339c.076-.111-.105-.216-.18-.106M-10.384 115.764a12.481 12.481 0 0 1 3.822 8.487c.006.134.215.135.21 0a12.7 12.7 0 0 0-3.885-8.634c-.097-.094-.245.054-.147.147M-10.973 119.813c.326.35.543.764.653 1.23.031.131.233.075.202-.055a2.902 2.902 0 0 0-.707-1.323c-.092-.098-.24.05-.148.148M-10.59 131.3c-.24 1.492-.8 2.9-1.649 4.15-.075.113.106.217.181.107a10.406 10.406 0 0 0 1.67-4.2c.02-.132-.18-.189-.202-.056M-17.295 144.339a44.503 44.503 0 0 0-4.475 7.009c-.061.12.119.225.18.105a44.225 44.225 0 0 1 4.443-6.967c.082-.105-.065-.254-.148-.147M-31.222 186.15a15.06 15.06 0 0 0-.413 2.883c-.007.135.202.134.208 0 .045-.955.18-1.898.407-2.827.032-.13-.17-.186-.202-.055M-24.469 186.927v2.182c0 .135.21.135.21 0v-2.182c0-.134-.21-.135-.21 0M-18.247 166.875a28.842 28.842 0 0 1 1.33-3.471c.054-.12.236-.016.182.108a28.355 28.355 0 0 0-1.31 3.421c-.044.128-.244.073-.202-.058M-24.601 201.148c.003.996.088 1.986.25 2.968.022.132.223.076.202-.055-.16-.965-.24-1.936-.243-2.913 0-.135-.209-.135-.209 0" transform="matrix(.99464 0 0 .99568 41.972 -38.44)"/></svg>